<svg xmlns="http://www.w3.org/2000/svg" width="399" height="399" viewBox="0 0 399 399" version="1.1"><path d="M 171 1.623 C 82.495 14.914, 14.317 83.510, 1.533 172.128 C -0.464 185.972, -0.464 213.028, 1.533 226.872 C 5.920 257.279, 16.439 284.825, 33.470 310.500 C 64.796 357.725, 115.025 389.229, 172.128 397.467 C 185.972 399.464, 213.028 399.464, 226.872 397.467 C 299.928 386.928, 360.202 338.744, 386.592 269.786 C 391.137 257.908, 395.451 241.111, 397.067 229 C 397.764 223.775, 398.709 219.072, 399.167 218.550 C 400.231 217.337, 400.269 178.716, 399.206 179.373 C 398.769 179.643, 397.829 175.507, 397.118 170.182 C 394.490 150.512, 387.770 129.355, 377.911 109.714 C 348.499 51.113, 292.493 11, 226.872 1.533 C 213.551 -0.388, 184.077 -0.341, 171 1.623 M 178.500 14.132 C 174.320 16.506, 170.929 20.549, 169.894 24.395 C 168.980 27.788, 169.389 31.275, 172.631 47.714 C 175.559 62.559, 176.759 66.923, 177.804 66.522 C 178.552 66.235, 179.862 66, 180.716 66 C 182.073 66, 182.208 64.031, 181.792 50.342 C 181.174 30.004, 180.330 30.995, 198.250 31.015 C 205.537 31.024, 211.988 31.361, 212.585 31.765 C 215.316 33.614, 215.747 36.735, 215.240 51.019 L 214.720 65.713 217.406 66.387 C 218.883 66.758, 220.456 66.836, 220.901 66.561 C 221.346 66.286, 223.209 56.894, 225.042 45.689 C 228.812 22.639, 228.666 21.138, 222.185 16.189 C 218.678 13.512, 218.578 13.499, 199.581 13.248 C 186.739 13.078, 179.846 13.367, 178.500 14.132 M 143.500 20.704 C 142.400 20.975, 134.394 24.141, 125.709 27.740 C 110.515 34.037, 109.820 34.452, 107.336 38.690 C 105.217 42.306, 104.840 43.984, 105.232 48.066 C 105.644 52.349, 107.187 55.254, 116.358 69.019 C 122.215 77.809, 127.343 84.986, 127.753 84.968 C 128.763 84.925, 132 82.426, 132 81.689 C 132 81.364, 129.300 75.204, 126 68 C 122.700 60.796, 120 54.093, 120 53.106 C 120 52.118, 120.787 50.606, 121.750 49.745 C 124.249 47.510, 143.830 39, 146.474 39 C 150.029 39, 152.181 42.368, 157.562 56.348 C 162.281 68.610, 162.788 69.477, 165.062 69.164 C 166.403 68.978, 167.808 68.528, 168.184 68.164 C 169.143 67.232, 160.295 29.099, 158.475 26.321 C 155.937 22.448, 148.206 19.548, 143.500 20.704 M 246.655 21.459 C 242.110 23.079, 238.577 26.175, 237.081 29.849 C 235.073 34.777, 228.966 67.366, 229.880 68.280 C 230.369 68.769, 231.760 69.019, 232.972 68.835 C 234.812 68.555, 236.022 66.206, 240.340 54.523 C 246.944 36.657, 246.351 36.948, 262.905 43.422 C 274.543 47.973, 277 49.713, 277 53.403 C 277 54.248, 274.284 61.078, 270.964 68.582 C 265.295 81.396, 265.036 82.309, 266.714 83.581 C 267.696 84.327, 269.027 84.951, 269.672 84.968 C 271.270 85.012, 291.847 52.014, 292.615 48.177 C 293.357 44.466, 289.897 36.634, 286.546 34.438 C 283.577 32.493, 253.353 19.988, 251.755 20.044 C 251.065 20.068, 248.770 20.705, 246.655 21.459 M 192.500 32.875 C 183.849 35.119, 182.284 38.869, 183.609 54.192 L 184.500 64.500 191.364 64.798 L 198.228 65.097 197.503 52.048 C 196.856 40.415, 196.952 39, 198.388 39 C 199.788 39, 200 40.711, 200 52 L 200 65 206.364 65 L 212.728 65 213.364 60.360 C 214.310 53.458, 214.133 41.481, 213.043 38.613 C 212.517 37.229, 210.755 35.408, 209.129 34.567 C 205.549 32.715, 196.618 31.807, 192.500 32.875 M 134.500 45.497 C 131.200 46.844, 127.438 49.166, 126.141 50.656 C 122.805 54.487, 123.643 59.749, 129.449 71.450 L 134.146 80.913 139.323 78.885 C 142.170 77.770, 144.872 76.494, 145.328 76.051 C 145.783 75.607, 144.128 70.577, 141.650 64.872 C 136.410 52.808, 136.134 51.886, 137.589 51.345 C 138.189 51.123, 141.026 56.302, 143.896 62.856 L 149.113 74.772 154.555 72.636 C 157.547 71.461, 159.997 70.022, 159.998 69.438 C 160.002 67.224, 153.994 50.727, 152.021 47.534 C 148.671 42.114, 144.090 41.582, 134.500 45.497 M 246.667 45.984 C 244.128 49.001, 241.517 55.127, 238.655 64.782 L 237.089 70.064 242.721 72.555 C 245.819 73.925, 248.662 74.698, 249.038 74.273 C 249.415 73.848, 251.698 68.440, 254.111 62.256 C 256.525 56.072, 259.063 51.010, 259.750 51.006 C 261.578 50.997, 261.437 51.561, 256.393 64.396 C 253.859 70.844, 251.947 76.237, 252.143 76.381 C 253.541 77.404, 262.580 80.759, 263.090 80.444 C 264.201 79.758, 271.727 63.663, 272.861 59.549 C 274.442 53.813, 272.160 50.356, 264.083 46.250 C 255.527 41.901, 250.172 41.819, 246.667 45.984 M 82 54.052 C 80.625 54.621, 73.752 60.805, 66.726 67.793 C 52.728 81.718, 51.025 84.677, 52.937 91.750 C 53.494 93.813, 54.624 96.458, 55.447 97.629 C 56.270 98.800, 64.156 104.625, 72.970 110.573 C 88.367 120.963, 89.054 121.311, 90.481 119.444 C 91.297 118.375, 91.860 117.022, 91.733 116.438 C 91.605 115.855, 86.662 110.930, 80.750 105.495 C 66.819 92.690, 66.836 92.957, 79.184 80.365 C 91.639 67.665, 91.321 67.643, 105.129 82.190 L 115.759 93.388 118.411 91.650 C 120.018 90.597, 120.777 89.437, 120.337 88.706 C 117.567 84.110, 97.846 57.133, 96.138 55.604 C 93.662 53.388, 85.715 52.515, 82 54.052 M 305.500 53.682 C 300.997 54.924, 297.365 58.979, 287.441 73.848 L 277.018 89.463 279.094 91.481 L 281.169 93.500 291.834 82.238 C 305.555 67.750, 305.186 67.780, 317.750 80.100 C 330.289 92.396, 330.311 92.092, 315.846 105.930 L 304.692 116.600 306.466 119.308 L 308.240 122.015 312.870 118.697 C 315.416 116.872, 322.850 111.602, 329.389 106.985 C 341.878 98.168, 344.990 94.625, 344.996 89.218 C 345.003 83.397, 342.449 79.740, 329.231 66.642 C 317.005 54.526, 316.002 53.764, 311.877 53.457 C 309.470 53.277, 306.600 53.379, 305.500 53.682 M 86.500 76.850 C 82.237 79.468, 75.185 87.414, 74.421 90.460 C 74.065 91.878, 74.320 94.358, 74.987 95.970 C 76.227 98.963, 83.481 106.293, 90.301 111.444 L 94.103 114.316 98.563 109.938 L 103.023 105.561 94.012 96.512 C 89.055 91.535, 85 87.133, 85 86.731 C 85 84.513, 88.399 86.935, 96.234 94.733 L 105.008 103.466 109.516 98.958 L 114.024 94.450 107.833 87.475 C 96.716 74.949, 92.784 72.991, 86.500 76.850 M 180.863 76.072 C 133.148 83.080, 92.744 118.063, 79.393 163.929 C 68.750 200.487, 74.414 237.399, 95.532 269.121 C 118.460 303.562, 156.994 324, 199 324 C 290.740 324, 350.822 226.978, 310.157 144.500 C 292.254 108.189, 259.007 83.503, 218.619 76.533 C 209.208 74.909, 190.350 74.678, 180.863 76.072 M 294.465 82.250 C 290.559 86.237, 286.533 90.771, 285.518 92.324 L 283.674 95.147 288.128 99.602 L 292.583 104.056 301.417 95.028 C 306.276 90.063, 310.645 86, 311.126 86 C 313.491 86, 311.229 89.235, 303.284 97.217 L 294.568 105.973 298.487 109.987 C 300.642 112.194, 302.963 114, 303.643 114 C 304.323 114, 309.024 110.007, 314.089 105.127 C 323.224 96.324, 323.293 96.221, 322.753 92.197 C 321.740 84.646, 311.832 75, 305.087 75 C 302.038 75, 300.619 75.969, 294.465 82.250 M 178.136 79.538 C 145.850 85.212, 115.033 105.391, 97.575 132.289 C 83.381 154.160, 77.594 173.605, 77.574 199.500 C 77.548 232.153, 88.540 259.812, 110.879 283.307 C 145.515 319.735, 198.801 331.051, 245.337 311.861 C 280.613 297.314, 306.244 267.234, 316.794 228 C 319.111 219.385, 319.349 216.729, 319.349 199.500 C 319.349 182.234, 319.114 179.625, 316.774 170.915 C 304.390 124.820, 272.686 93.147, 227.085 81.314 C 214.792 78.124, 191.079 77.264, 178.136 79.538 M 187.812 92.250 C 183.758 105.340, 185.058 118.137, 191.799 131.500 L 194.321 136.500 195.691 133.183 C 200.101 122.500, 201.059 111.500, 198.453 101.460 C 196.545 94.112, 192.466 85, 191.084 85 C 190.520 85, 189.047 88.263, 187.812 92.250 M 210.160 90 C 205.479 98.093, 203 106.976, 203 115.650 C 203 123.176, 205.558 136, 207.059 136 C 208.831 136, 215.829 119.939, 217.061 113.045 C 218.440 105.332, 217.417 94.443, 214.690 87.791 L 213.341 84.500 210.160 90 M 167.664 90.931 C 166.334 97.578, 166.967 109.682, 168.985 116.217 C 171.683 124.952, 180.686 138.647, 182.523 136.811 C 182.784 136.550, 183.287 132.912, 183.640 128.727 C 184.782 115.226, 180.426 101.244, 172.186 91.960 L 168.328 87.612 167.664 90.931 M 230.678 95.082 C 222.245 104.659, 217.985 116.340, 218.015 129.799 C 218.037 139.455, 218.889 140.116, 223.846 134.327 C 233.911 122.570, 239.384 103.740, 236.125 92.082 C 235.474 89.754, 235.271 89.866, 230.678 95.082 M 147.017 99.750 C 147.047 106.179, 149.706 116.475, 153.044 123.088 C 156.180 129.299, 167.558 142, 169.987 142 C 170.837 142, 170.965 140.146, 170.452 135.250 C 169.528 126.418, 166.776 117.611, 163.164 111.918 C 160.229 107.292, 149.346 96, 147.823 96 C 147.371 96, 147.008 97.688, 147.017 99.750 M 246.046 107.750 C 241.141 112.680, 237.391 117.512, 235.743 121.029 C 233.109 126.647, 229.317 142.650, 230.370 143.703 C 230.687 144.021, 233.426 142.409, 236.455 140.122 C 242.549 135.520, 249.034 127.529, 251.603 121.455 C 255.509 112.220, 257.375 100, 254.879 100 C 254.262 100, 250.287 103.487, 246.046 107.750 M 40.500 106.370 C 35.290 108.778, 32.510 113.079, 26.037 128.743 C 20.658 141.758, 19.811 144.630, 20.236 148.401 C 20.806 153.455, 23.939 158.406, 27.829 160.398 C 30.517 161.775, 66.839 169.544, 67.412 168.864 C 67.580 168.664, 67.998 167.331, 68.340 165.903 C 68.948 163.361, 68.657 163.195, 54.396 157.996 C 35.806 151.219, 36.133 151.832, 42.525 135.738 C 46.920 124.670, 49.452 121, 52.692 121 C 53.377 121, 60.041 123.700, 67.500 127 C 74.959 130.300, 81.261 133, 81.505 133 C 81.749 133, 82.594 131.753, 83.382 130.228 L 84.815 127.457 67.490 116.679 C 49.447 105.454, 45.633 103.997, 40.500 106.370 M 329.575 116.980 C 313.378 127.725, 313.049 128.013, 314.173 130.480 C 314.804 131.866, 315.651 133, 316.054 133 C 316.457 133, 322.507 130.300, 329.500 127 C 343.118 120.573, 345.769 119.982, 348.322 122.804 C 350.568 125.285, 359 144.780, 359 147.490 C 359 150.935, 356.151 152.756, 342.353 158.126 C 335.284 160.878, 329.199 163.438, 328.830 163.815 C 328.462 164.192, 328.687 165.677, 329.330 167.115 L 330.500 169.731 349.942 165.262 C 360.636 162.805, 370.446 160.099, 371.743 159.248 C 373.041 158.398, 374.796 156.362, 375.643 154.723 C 378.504 149.190, 377.692 144.474, 371.137 128.561 C 367.752 120.345, 364.345 112.650, 363.566 111.461 C 361.543 108.373, 355.936 106, 350.662 106 C 346.561 106, 344.539 107.053, 329.575 116.980 M 128 108.818 C 128 109.269, 128.718 112.081, 129.595 115.068 C 132.056 123.446, 136.777 131.520, 142.576 137.268 C 147.945 142.590, 158.593 149.740, 159.620 148.713 C 160.513 147.820, 157.113 137.166, 153.908 130.817 C 150.410 123.888, 141.968 115.169, 134.746 111.028 C 129.248 107.874, 128 107.466, 128 108.818 M 266.978 115.750 C 259.044 119.772, 248.961 130.100, 245.256 138 C 241.417 146.186, 240.296 151, 242.229 151 C 244.783 151, 255.442 143.940, 260.728 138.747 C 266.038 133.531, 271.974 123.558, 273.821 116.750 C 275.079 112.113, 274.360 112.008, 266.978 115.750 M 112 124.191 C 112 127.077, 119.172 138.224, 124.478 143.585 C 130.480 149.649, 140.166 155.283, 146.906 156.631 C 150.862 157.422, 150.861 156.395, 146.900 148.964 C 142.725 141.130, 134.414 132.986, 126.236 128.714 C 118.496 124.672, 112 122.607, 112 124.191 M 51.822 125.847 C 49.499 127.012, 47.677 129.220, 45.657 133.323 C 40.241 144.323, 41.096 149.976, 48.765 153.872 C 52.577 155.808, 69.053 161.281, 69.555 160.778 C 70.730 159.601, 73.923 149.545, 73.296 148.998 C 72.858 148.616, 67.657 146.383, 61.738 144.037 C 55.819 141.690, 50.749 139.403, 50.472 138.954 C 49.070 136.687, 52.830 137.446, 63.133 141.511 C 69.385 143.978, 74.778 145.997, 75.117 145.998 C 75.456 145.999, 76.712 143.645, 77.908 140.767 C 80.494 134.544, 80.585 134.665, 69.371 129.466 C 58.595 124.470, 55.743 123.882, 51.822 125.847 M 337.459 125.472 C 335.275 126.117, 329.790 128.569, 325.271 130.920 L 317.054 135.195 318.614 138.847 C 319.472 140.856, 320.574 143.512, 321.062 144.750 C 321.551 145.988, 322.122 147, 322.331 147 C 322.540 147, 327.260 145.010, 332.821 142.578 C 345.932 136.844, 347 136.521, 347 138.283 C 347 139.085, 344.072 140.933, 340.250 142.542 C 336.538 144.106, 331.157 146.409, 328.292 147.661 L 323.085 149.937 325.160 154.719 C 326.301 157.348, 327.552 159.848, 327.940 160.272 C 328.327 160.697, 331.596 160.133, 335.202 159.019 C 351.448 154.001, 355.564 150.576, 354.659 142.828 C 354.058 137.688, 350.265 129.408, 347.358 126.891 C 344.642 124.539, 341.934 124.151, 337.459 125.472 M 281 131.276 C 268.931 135.406, 260.064 142.256, 253.529 152.500 C 249.199 159.289, 248.519 161.277, 250.756 160.613 C 251.715 160.328, 253.850 159.782, 255.500 159.399 C 261.023 158.117, 269.355 153.969, 274.721 149.830 C 279.444 146.186, 290 132.428, 290 129.916 C 290 128.546, 288.170 128.822, 281 131.276 M 99 142.997 C 99 143.545, 102.207 147.370, 106.127 151.497 C 111.041 156.670, 115.175 159.945, 119.439 162.044 C 125.550 165.053, 141.422 168.911, 142.648 167.686 C 143.854 166.479, 134.817 155.861, 128.834 151.457 C 124.985 148.623, 119.957 146.126, 114.859 144.515 C 106.728 141.947, 99 141.207, 99 142.997 M 184.275 145.479 C 174.864 148.122, 166.857 152.921, 159.400 160.389 C 145.396 174.414, 139.966 193.507, 144.506 212.760 C 149.007 231.853, 164.615 247.810, 184.372 253.517 C 192.538 255.875, 209.153 255.200, 217.500 252.169 C 234.874 245.862, 249.127 229.709, 253.023 211.912 C 254.795 203.817, 253.856 187.952, 251.166 180.539 C 245.638 165.304, 233.339 153.054, 217.500 147.008 C 209.766 144.056, 192.219 143.248, 184.275 145.479 M 184 148.888 C 174.617 151.925, 167.796 156.016, 161.506 162.379 C 140.577 183.551, 140.749 216.271, 161.899 237 C 172.455 247.347, 183.749 251.966, 198.540 251.988 C 212.776 252.009, 223.537 247.900, 233.860 238.500 C 245.317 228.068, 251 215.337, 251 200.105 C 251 184.013, 246.808 173.810, 235.517 162.423 C 224.727 151.542, 213.604 146.989, 198 147.066 C 192.683 147.092, 187.440 147.774, 184 148.888 M 290 148.690 C 279.058 150.520, 267.143 157.342, 259.698 166.040 C 255.153 171.349, 255.952 172.070, 265.120 170.931 C 273.493 169.891, 281.612 167.053, 287.168 163.223 C 291.244 160.414, 302 149.780, 302 148.560 C 302 147.943, 293.947 148.030, 290 148.690 M 189.500 161.348 C 169.599 166.523, 156.390 186.283, 159.921 205.594 C 162.372 219.003, 170.341 229.457, 182.419 235.109 C 198.169 242.479, 215.727 238.738, 227.900 225.419 C 234.669 218.013, 237.317 210.940, 237.417 200 C 237.541 186.318, 232.566 176.169, 221.715 167.967 C 212.979 161.365, 199.826 158.662, 189.500 161.348 M 92.046 161.824 L 88.592 162.500 93.932 167.165 C 100.625 173.013, 106.981 176.500, 114.535 178.467 C 120.948 180.137, 136.538 180.557, 137.448 179.084 C 138.140 177.964, 131.091 171.770, 125.097 168.230 C 116.143 162.944, 101.164 160.040, 92.046 161.824 M 282.500 169.404 C 272.281 172.650, 259.782 181.182, 261.999 183.399 C 262.673 184.073, 267.245 184.471, 273.800 184.426 C 282.505 184.365, 285.619 183.917, 290.500 182.019 C 297.425 179.328, 303.309 175.871, 307.288 172.156 C 309.796 169.814, 309.897 169.482, 308.288 168.847 C 305.273 167.656, 286.743 168.057, 282.500 169.404 M 20.009 171.855 C 17.969 172.950, 15.617 175.476, 14.275 178.013 C 12.160 182.011, 12 183.541, 12 199.707 C 12 218.773, 12.444 220.671, 17.994 225.341 C 22.977 229.534, 26.247 229.569, 46.648 225.644 C 56.892 223.673, 65.458 221.875, 65.685 221.648 C 65.912 221.422, 65.785 219.993, 65.404 218.473 L 64.711 215.711 49.587 216.385 C 29.479 217.282, 30.594 218.206, 30.178 200.303 C 29.756 182.117, 28.627 183.139, 49.550 182.776 L 65.500 182.500 65.500 179.563 L 65.500 176.626 46.500 173.335 C 24.115 169.457, 24.447 169.475, 20.009 171.855 M 348.500 173.696 C 339.150 175.619, 331.427 177.261, 331.338 177.346 C 331.249 177.431, 331.427 178.805, 331.734 180.401 L 332.291 183.301 347.662 182.667 C 367.859 181.833, 367 181.089, 367 199.429 C 367 210.303, 366.701 213.156, 365.429 214.429 C 363.598 216.259, 364.526 216.182, 346.374 216.008 L 332.249 215.872 331.569 218.581 C 331.195 220.070, 331.252 221.612, 331.695 222.007 C 332.138 222.402, 341.624 224.247, 352.775 226.107 L 373.051 229.489 376.750 227.494 C 378.792 226.393, 381.476 223.708, 382.741 221.500 C 384.940 217.660, 385.021 216.733, 384.766 198.313 L 384.500 179.126 381.500 175.940 C 377.889 172.105, 373.228 169.964, 368.782 170.101 C 366.977 170.156, 357.850 171.774, 348.500 173.696 M 0.420 199.500 C 0.419 210.500, 0.565 215.136, 0.745 209.803 C 0.924 204.470, 0.925 195.470, 0.746 189.803 C 0.568 184.136, 0.421 188.500, 0.420 199.500 M 99 180.594 C 97.625 180.832, 93.619 181.764, 90.098 182.665 C 84.164 184.185, 83.835 184.411, 85.598 185.765 C 89.790 188.983, 101.849 193.980, 107.605 194.884 C 111.065 195.427, 116.481 195.496, 120.105 195.043 C 127.241 194.151, 135 192.045, 135 191.001 C 135 189.931, 125.673 185.124, 119.435 182.978 C 113.680 180.998, 103.516 179.812, 99 180.594 M 38.500 184.945 C 34.116 186.740, 32.546 189.849, 32.160 197.505 C 31.379 212.977, 34.401 215.606, 51.896 214.668 C 58.193 214.331, 63.742 213.658, 64.227 213.173 C 64.712 212.688, 64.972 209.687, 64.804 206.504 L 64.500 200.716 52 200.608 C 34.966 200.461, 34.618 198.649, 51.500 198 L 64.500 197.500 64.500 191.500 L 64.500 185.500 59.500 184.838 C 52.497 183.910, 40.885 183.969, 38.500 184.945 M 337.750 184.735 L 333 185.110 333 191.982 L 333 198.854 346 198.276 C 357.651 197.758, 359 197.869, 359 199.349 C 359 200.799, 357.417 201, 346 201 L 333 201 333 207.361 L 333 213.721 338.250 214.352 C 347.323 215.442, 356.936 215.085, 359.909 213.547 C 363.423 211.730, 365.209 207.531, 365.348 200.753 C 365.674 184.870, 362.131 182.813, 337.750 184.735 M 283 186.607 C 278.424 187.450, 266.533 192.034, 264.109 193.891 L 261.718 195.721 268.109 197.896 C 277.055 200.941, 287.843 201.600, 296.259 199.617 C 302.956 198.039, 312.303 193.936, 313.458 192.068 C 315.092 189.423, 291.082 185.118, 283 186.607 M 101.089 199.412 C 95.148 200.921, 84 205.937, 84 207.102 C 84 208.341, 96.148 211.951, 102.500 212.600 C 111.809 213.552, 127.387 209.746, 133.091 205.127 C 135.246 203.383, 135.207 203.349, 128.480 201.141 C 119.907 198.327, 108.261 197.592, 101.089 199.412 M 268.054 205.596 C 265.058 206.401, 262.419 207.248, 262.188 207.479 C 261.317 208.349, 271.547 214.021, 277.891 216.185 C 282.780 217.853, 286.712 218.428, 293 218.396 C 303.053 218.344, 313.792 215.660, 312.101 213.621 C 310.689 211.920, 300.598 207.005, 295.091 205.336 C 289.355 203.598, 274.972 203.736, 268.054 205.596 M 112.389 215.423 C 105.016 217.106, 99.309 219.874, 92.076 225.276 C 86.787 229.227, 86.712 229.350, 89.076 230.256 C 90.409 230.766, 95.325 231.223, 100 231.271 C 112.838 231.403, 122.988 227.854, 133.281 219.634 C 136.304 217.221, 136.763 216.447, 135.570 215.779 C 132.753 214.203, 118.682 213.987, 112.389 215.423 M 260.155 219.883 C 259.158 220.515, 260.302 221.951, 264.584 225.438 C 271.081 230.731, 275.229 233.013, 282.500 235.295 C 289.565 237.512, 297.141 238.306, 303.231 237.468 L 308.463 236.749 303.422 232.124 C 297.213 226.429, 290.193 222.546, 282.465 220.533 C 276.144 218.886, 262.361 218.485, 260.155 219.883 M 124.265 229.542 C 115.479 231.908, 108.841 235.947, 101.506 243.390 L 94.500 250.500 99.129 250.800 C 105.120 251.188, 115.634 248.726, 122.205 245.396 C 127.283 242.823, 138.265 233.241, 140.130 229.758 C 140.978 228.172, 140.504 228.006, 135.285 228.066 C 132.103 228.102, 127.144 228.766, 124.265 229.542 M 57 231.565 C 51.775 232.795, 43.023 234.822, 37.550 236.070 C 24.762 238.986, 20.998 241.969, 20.247 249.781 C 19.800 254.432, 20.416 256.551, 26.532 271.397 C 34.674 291.159, 35.912 292.500, 46 292.500 L 52.500 292.500 68.224 282 C 76.872 276.225, 83.945 271.050, 83.942 270.500 C 83.939 269.950, 83.329 268.700, 82.588 267.722 C 81.324 266.056, 80.401 266.325, 67.979 271.972 C 53.812 278.413, 51.181 278.999, 48.784 276.250 C 47.293 274.540, 39.802 257.762, 38.494 253.201 C 37.224 248.777, 40.024 246.691, 54.939 240.952 C 68.584 235.702, 69.071 235.416, 68.476 233.003 C 68.136 231.626, 67.553 230.236, 67.179 229.914 C 66.806 229.591, 62.225 230.334, 57 231.565 M 329.720 230.613 C 329.324 231.009, 329 232.344, 329 233.579 C 329 235.433, 330.178 236.270, 335.750 238.377 C 339.462 239.781, 345.872 242.204, 349.992 243.761 C 360.441 247.711, 360.614 248.470, 354.578 263.905 C 350.027 275.543, 348.287 278, 344.597 278 C 343.752 278, 336.922 275.284, 329.418 271.964 C 316.604 266.295, 315.691 266.036, 314.419 267.714 C 313.673 268.696, 313.049 270.027, 313.032 270.672 C 312.984 272.441, 346.410 293.030, 350.375 293.673 C 354.696 294.375, 361.292 290.906, 363.943 286.538 C 364.957 284.867, 368.548 276.827, 371.924 268.671 C 378.544 252.674, 378.809 250.503, 374.920 244.109 C 371.881 239.111, 367.926 237.470, 350.708 234.062 C 341.793 232.298, 333.586 230.638, 332.470 230.374 C 331.353 230.110, 330.116 230.218, 329.720 230.613 M 254 231.768 C 254 232.190, 256.137 235.082, 258.750 238.194 C 266.579 247.519, 272.609 251.614, 283.355 254.902 C 289.912 256.909, 298 257.713, 298 256.359 C 298 254.675, 289.947 245.440, 285.449 241.965 C 279.150 237.099, 272.891 234.296, 264.227 232.460 C 256.578 230.839, 254 230.665, 254 231.768 M 58.161 241.430 C 42.761 246.892, 40.282 250.130, 43.549 260.518 C 45.785 267.626, 48.752 272.104, 52.381 273.850 C 54.858 275.041, 55.912 274.938, 61.344 272.980 C 67.083 270.911, 80 264.307, 80 263.442 C 80 263.230, 78.900 260.571, 77.556 257.532 C 74.758 251.204, 76.450 251.161, 61.097 257.942 C 54.657 260.786, 51.371 261.771, 50.667 261.067 C 49.672 260.072, 51.910 258.879, 68.744 251.435 L 74.012 249.105 72.006 244.015 C 70.903 241.216, 70 238.718, 70 238.463 C 70 237.516, 67.260 238.203, 58.161 241.430 M 142.209 239.608 C 128.751 243.098, 115.362 253.431, 109.624 264.756 C 106.538 270.845, 106.736 270.943, 116.217 268.015 C 128.405 264.250, 139.290 255.232, 145.567 243.699 C 147.014 241.040, 148.041 238.723, 147.849 238.550 C 147.657 238.377, 145.119 238.853, 142.209 239.608 M 325.445 243.721 C 324.075 246.819, 323.302 249.670, 323.727 250.058 C 324.152 250.445, 329.563 252.704, 335.750 255.077 C 342.123 257.522, 347 259.958, 347 260.696 C 347 262.538, 346.865 262.505, 333.724 257.393 C 327.211 254.859, 321.764 252.946, 321.621 253.143 C 321.478 253.339, 320.394 255.888, 319.212 258.806 L 317.064 264.112 327.282 268.975 C 340.149 275.099, 341.746 275.441, 345.840 272.951 C 349.949 270.452, 354.998 260.246, 354.999 254.437 C 355 247.863, 350.419 244.754, 333.218 239.655 L 327.936 238.089 325.445 243.721 M 247.502 244.102 C 248.965 248.900, 255.051 257.758, 260.286 262.710 C 265.997 268.111, 271.157 271.130, 279.702 274.069 C 284.671 275.779, 285 275.785, 285 274.173 C 285 270.939, 277.504 259.764, 271.773 254.454 C 265.884 248.998, 256.077 243.516, 250.136 242.359 C 246.943 241.738, 246.809 241.827, 247.502 244.102 M 148.530 251.175 C 137.165 257.037, 125.634 271.578, 123.369 282.906 C 122.578 286.862, 123.605 286.861, 131.036 282.900 C 139.816 278.220, 147.433 270.083, 151.952 260.555 C 156.342 251.299, 157.325 247.979, 155.656 248.048 C 155.020 248.075, 151.814 249.482, 148.530 251.175 M 238.099 253.944 C 240.534 264.783, 245.272 273.180, 253.118 280.565 C 258.754 285.869, 267.675 291.658, 268.674 290.660 C 269.559 289.774, 267.177 281.251, 264.409 275.400 C 260.581 267.308, 254.570 260.526, 246.357 255.033 C 242.219 252.265, 238.468 250, 238.023 250 C 237.577 250, 237.611 251.775, 238.099 253.944 M 162.500 257.765 C 156.468 262.183, 149.480 270.120, 146.577 275.848 C 143.735 281.457, 141.038 291.622, 141.015 296.812 L 141 300.124 145.630 296.812 C 151.840 292.370, 158.210 284.951, 161.390 278.456 C 164.328 272.455, 167.262 260.981, 166.803 257.282 L 166.500 254.836 162.500 257.765 M 227 262.222 C 227 274.927, 232.745 287.596, 242.862 297.199 L 249.500 303.500 249.828 299.500 C 250.925 286.120, 241.700 267.331, 229.913 258.938 L 227 256.864 227 262.222 M 173.819 264.750 C 165.034 273.936, 160.823 284.922, 160.774 298.787 C 160.755 303.895, 161.043 308.376, 161.413 308.746 C 162.440 309.773, 169.505 301.218, 173.069 294.632 C 174.815 291.404, 176.858 286.454, 177.610 283.632 C 179.075 278.128, 179.524 261, 178.203 261 C 177.765 261, 175.792 262.688, 173.819 264.750 M 214.695 263.151 C 211.011 278.275, 215.311 295.962, 225.531 307.736 L 228.799 311.500 229.631 307.500 C 232.677 292.849, 228.183 276.442, 217.620 263.651 L 215.267 260.802 214.695 263.151 M 187.512 267 C 185.933 269.475, 183.532 274.650, 182.177 278.500 C 179.063 287.350, 178.886 299.501, 181.742 308.500 L 183.646 314.500 186.788 309.609 C 194.280 297.949, 196.469 281.606, 192.295 268.500 L 190.384 262.500 187.512 267 M 200.100 270.413 C 195.774 284.419, 196.688 296.497, 203.026 309.051 C 206.733 316.396, 207.004 316.216, 210.034 304.369 C 212.390 295.155, 212.520 288.418, 210.492 280.632 C 208.741 273.909, 204.258 264, 202.968 264 C 202.480 264, 201.189 266.886, 200.100 270.413 M 71.500 289.525 C 46.144 307.693, 45.909 310.075, 67.329 331.720 C 79.052 343.565, 80.850 345.005, 84.631 345.572 C 90.118 346.395, 94.901 344.749, 98.696 340.731 C 101.914 337.325, 120 310.613, 120 309.267 C 120 308.835, 119.022 307.871, 117.827 307.124 C 115.777 305.844, 115.095 306.367, 105.719 316.407 C 94.041 328.911, 93.040 329.593, 89.259 327.623 C 84.516 325.151, 70 309.523, 70 306.889 C 70 305.215, 73.261 301.303, 81.272 293.366 C 91.867 282.869, 92.460 282.072, 91.150 280.099 C 90.383 278.945, 89.248 278.014, 88.628 278.030 C 88.008 278.047, 80.300 283.219, 71.500 289.525 M 306.503 280.233 C 304.898 282.461, 305.059 282.679, 315.947 293 C 330.157 306.469, 330.131 306.155, 318.090 318.750 C 305.939 331.462, 306.061 331.471, 291.977 316.750 L 281.213 305.500 279.071 307.437 C 277.893 308.502, 277.151 309.951, 277.422 310.657 C 278.889 314.481, 299.917 342.588, 302.480 344.151 C 306.377 346.527, 312.107 346.502, 316.790 344.087 C 318.830 343.034, 325.744 336.847, 332.154 330.337 C 342.819 319.504, 343.866 318.106, 344.502 313.849 C 345.906 304.457, 343.467 301.343, 325.142 289.127 C 317.089 283.758, 309.968 279.051, 309.318 278.666 C 308.646 278.268, 307.433 278.944, 306.503 280.233 M 89.285 288.186 C 81.558 294.691, 76.080 300.393, 74.959 303.098 C 73.165 307.430, 75.251 311.981, 81.966 318.386 C 88.363 324.488, 91.476 325.357, 96.900 322.552 C 99.831 321.036, 112.967 306.263, 112.988 304.458 C 112.995 303.885, 111.080 301.532, 108.733 299.228 L 104.465 295.040 95.601 304.588 C 89.307 311.366, 86.426 313.826, 85.666 313.066 C 84.581 311.981, 85.300 311.077, 97.450 298.257 L 102.419 293.013 98.506 289.007 C 96.355 286.803, 94.251 285, 93.832 285 C 93.413 285, 91.366 286.434, 89.285 288.186 M 298.193 289.304 L 293.969 293.608 302.984 302.430 C 307.943 307.282, 312 311.645, 312 312.126 C 312 314.491, 308.765 312.229, 300.783 304.284 L 292.027 295.568 288.013 299.487 C 285.806 301.642, 284 303.963, 284 304.643 C 284 305.323, 287.938 309.960, 292.750 314.947 C 300.597 323.078, 301.871 324.013, 305.100 324.007 C 312.085 323.994, 323 313.229, 323 306.353 C 323 303.892, 322.007 301.903, 319.250 298.842 C 315.164 294.305, 304.346 285, 303.156 285 C 302.749 285, 300.516 286.937, 298.193 289.304 M 116.182 330.493 C 104.893 348.538, 103.696 351.314, 105.066 356.275 C 106.688 362.151, 111.420 365.444, 128.399 372.509 C 147.330 380.387, 149.793 380.485, 156.578 373.624 C 160.565 369.593, 160.731 369.140, 163.975 353.500 C 165.801 344.700, 167.341 335.925, 167.397 334 C 167.487 330.945, 167.170 330.462, 164.905 330.199 C 162.427 329.911, 162.096 330.493, 157.511 343.199 C 152.343 357.521, 150.871 360, 147.538 360 C 143.555 360, 124.585 352.041, 122.214 349.375 C 119.459 346.277, 119.428 346.408, 126.781 329.640 C 132.205 317.270, 132.347 316.727, 130.519 315.390 C 129.473 314.625, 128.141 314, 127.559 314.001 C 126.976 314.002, 121.857 321.423, 116.182 330.493 M 267.098 315.750 L 264.975 317.500 270.988 330.429 C 277.243 343.881, 277.972 346.885, 275.564 349.294 C 273.491 351.366, 253.388 360, 250.635 360 C 247.074 360, 245.550 357.585, 239.893 342.987 C 237.018 335.569, 234.569 329.365, 234.449 329.200 C 234.330 329.034, 232.906 329.484, 231.283 330.200 L 228.334 331.500 232.614 350 C 237.551 371.341, 238.720 374.279, 243.212 376.631 C 249.055 379.689, 254.181 378.817, 270.500 371.985 C 278.750 368.531, 286.334 364.985, 287.352 364.105 C 290.420 361.455, 292 357.378, 292 352.113 C 292 347.438, 291.313 346.090, 281.012 330.563 C 274.969 321.453, 269.844 314, 269.623 314 C 269.402 314, 268.266 314.788, 267.098 315.750 M 129.345 327.560 C 123.966 338.914, 123.006 343.835, 125.445 347.556 C 127.651 350.923, 138.393 355.998, 143.316 355.999 C 148.412 356, 150.622 354.664, 152.881 350.217 C 154.484 347.062, 160 330.926, 160 329.393 C 160 328.953, 149.520 324, 148.588 324 C 148.393 324, 146.122 329.400, 143.541 336 C 139.207 347.082, 137.885 349.241, 136.654 347.250 C 136.399 346.837, 138.173 341.570, 140.595 335.544 C 145.550 323.222, 145.700 322.437, 143.250 321.725 C 142.287 321.446, 139.791 320.479, 137.702 319.575 L 133.905 317.933 129.345 327.560 M 257.308 320.363 C 254.452 321.566, 251.857 322.810, 251.541 323.126 C 251.224 323.442, 253.223 328.768, 255.983 334.961 C 261.415 347.153, 261.656 348, 259.698 348 C 258.981 348, 256.183 342.825, 253.478 336.500 C 250.774 330.175, 248.022 325, 247.364 325 C 246.705 325, 244.057 325.904, 241.479 327.009 C 238.267 328.386, 236.965 329.467, 237.341 330.446 C 237.643 331.232, 238.400 333.771, 239.024 336.087 C 240.706 342.336, 244.810 351.169, 247.225 353.740 C 251.114 357.879, 262.553 355.691, 269.806 349.422 C 274.886 345.031, 274.641 341.777, 268.240 328.612 C 265.403 322.776, 262.950 318.039, 262.790 318.087 C 262.631 318.135, 260.164 319.159, 257.308 320.363 M 175.549 334.159 C 175.255 335.447, 173.645 344.768, 171.970 354.873 C 168.495 375.845, 168.726 378.162, 174.750 382.761 C 178.336 385.499, 178.347 385.500, 197.704 385.810 C 216.093 386.104, 217.247 386.010, 220.566 383.959 C 224.476 381.543, 228.004 375.524, 227.992 371.290 C 227.988 369.755, 226.414 360.400, 224.493 350.500 C 222.573 340.600, 221.001 332.465, 221.001 332.423 C 221 332.381, 219.595 332.553, 217.878 332.805 L 214.756 333.263 215.465 348.898 C 216.372 368.926, 217.260 367.884, 199.144 368.061 C 181.101 368.238, 182 369.246, 182 348.845 C 182 335.833, 181.746 333, 180.582 333 C 179.802 333, 178.471 332.734, 177.624 332.409 C 176.572 332.005, 175.914 332.560, 175.549 334.159 M 183.470 344.606 C 182.608 357.241, 183.711 362.290, 187.788 364.376 C 194.541 367.831, 206.241 367.417, 210.721 363.564 C 213.806 360.910, 214.580 355.126, 213.533 342.550 L 212.820 334 206.410 334 L 200 334 200 347 C 200 357.889, 199.756 360, 198.500 360 C 197.244 360, 197 357.889, 197 347 L 197 334 190.596 334 L 184.192 334 183.470 344.606" stroke="none" fill="#954d06" fill-rule="evenodd"/><path d="M 178.500 14.132 C 174.320 16.506, 170.929 20.549, 169.894 24.395 C 168.980 27.788, 169.389 31.275, 172.631 47.714 C 175.559 62.559, 176.759 66.923, 177.804 66.522 C 178.552 66.235, 179.862 66, 180.716 66 C 182.073 66, 182.208 64.031, 181.792 50.342 C 181.174 30.004, 180.330 30.995, 198.250 31.015 C 205.537 31.024, 211.988 31.361, 212.585 31.765 C 215.316 33.614, 215.747 36.735, 215.240 51.019 L 214.720 65.713 217.406 66.387 C 218.883 66.758, 220.456 66.836, 220.901 66.561 C 221.346 66.286, 223.209 56.894, 225.042 45.689 C 228.812 22.639, 228.666 21.138, 222.185 16.189 C 218.678 13.512, 218.578 13.499, 199.581 13.248 C 186.739 13.078, 179.846 13.367, 178.500 14.132 M 143.500 20.704 C 142.400 20.975, 134.394 24.141, 125.709 27.740 C 110.515 34.037, 109.820 34.452, 107.336 38.690 C 105.217 42.306, 104.840 43.984, 105.232 48.066 C 105.644 52.349, 107.187 55.254, 116.358 69.019 C 122.215 77.809, 127.343 84.986, 127.753 84.968 C 128.763 84.925, 132 82.426, 132 81.689 C 132 81.364, 129.300 75.204, 126 68 C 122.700 60.796, 120 54.093, 120 53.106 C 120 52.118, 120.787 50.606, 121.750 49.745 C 124.249 47.510, 143.830 39, 146.474 39 C 150.029 39, 152.181 42.368, 157.562 56.348 C 162.281 68.610, 162.788 69.477, 165.062 69.164 C 166.403 68.978, 167.808 68.528, 168.184 68.164 C 169.143 67.232, 160.295 29.099, 158.475 26.321 C 155.937 22.448, 148.206 19.548, 143.500 20.704 M 246.655 21.459 C 242.110 23.079, 238.577 26.175, 237.081 29.849 C 235.073 34.777, 228.966 67.366, 229.880 68.280 C 230.369 68.769, 231.760 69.019, 232.972 68.835 C 234.812 68.555, 236.022 66.206, 240.340 54.523 C 246.944 36.657, 246.351 36.948, 262.905 43.422 C 274.543 47.973, 277 49.713, 277 53.403 C 277 54.248, 274.284 61.078, 270.964 68.582 C 265.295 81.396, 265.036 82.309, 266.714 83.581 C 267.696 84.327, 269.027 84.951, 269.672 84.968 C 271.270 85.012, 291.847 52.014, 292.615 48.177 C 293.357 44.466, 289.897 36.634, 286.546 34.438 C 283.577 32.493, 253.353 19.988, 251.755 20.044 C 251.065 20.068, 248.770 20.705, 246.655 21.459 M 192.500 32.875 C 183.849 35.119, 182.284 38.869, 183.609 54.192 L 184.500 64.500 191.364 64.798 L 198.228 65.097 197.503 52.048 C 196.856 40.415, 196.952 39, 198.388 39 C 199.788 39, 200 40.711, 200 52 L 200 65 206.364 65 L 212.728 65 213.364 60.360 C 214.310 53.458, 214.133 41.481, 213.043 38.613 C 212.517 37.229, 210.755 35.408, 209.129 34.567 C 205.549 32.715, 196.618 31.807, 192.500 32.875 M 134.500 45.497 C 131.200 46.844, 127.438 49.166, 126.141 50.656 C 122.805 54.487, 123.643 59.749, 129.449 71.450 L 134.146 80.913 139.323 78.885 C 142.170 77.770, 144.872 76.494, 145.328 76.051 C 145.783 75.607, 144.128 70.577, 141.650 64.872 C 136.410 52.808, 136.134 51.886, 137.589 51.345 C 138.189 51.123, 141.026 56.302, 143.896 62.856 L 149.113 74.772 154.555 72.636 C 157.547 71.461, 159.997 70.022, 159.998 69.438 C 160.002 67.224, 153.994 50.727, 152.021 47.534 C 148.671 42.114, 144.090 41.582, 134.500 45.497 M 246.667 45.984 C 244.128 49.001, 241.517 55.127, 238.655 64.782 L 237.089 70.064 242.721 72.555 C 245.819 73.925, 248.662 74.698, 249.038 74.273 C 249.415 73.848, 251.698 68.440, 254.111 62.256 C 256.525 56.072, 259.063 51.010, 259.750 51.006 C 261.578 50.997, 261.437 51.561, 256.393 64.396 C 253.859 70.844, 251.947 76.237, 252.143 76.381 C 253.541 77.404, 262.580 80.759, 263.090 80.444 C 264.201 79.758, 271.727 63.663, 272.861 59.549 C 274.442 53.813, 272.160 50.356, 264.083 46.250 C 255.527 41.901, 250.172 41.819, 246.667 45.984 M 82 54.052 C 80.625 54.621, 73.752 60.805, 66.726 67.793 C 52.728 81.718, 51.025 84.677, 52.937 91.750 C 53.494 93.813, 54.624 96.458, 55.447 97.629 C 56.270 98.800, 64.156 104.625, 72.970 110.573 C 88.367 120.963, 89.054 121.311, 90.481 119.444 C 91.297 118.375, 91.860 117.022, 91.733 116.438 C 91.605 115.855, 86.662 110.930, 80.750 105.495 C 66.819 92.690, 66.836 92.957, 79.184 80.365 C 91.639 67.665, 91.321 67.643, 105.129 82.190 L 115.759 93.388 118.411 91.650 C 120.018 90.597, 120.777 89.437, 120.337 88.706 C 117.567 84.110, 97.846 57.133, 96.138 55.604 C 93.662 53.388, 85.715 52.515, 82 54.052 M 305.500 53.682 C 300.997 54.924, 297.365 58.979, 287.441 73.848 L 277.018 89.463 279.094 91.481 L 281.169 93.500 291.834 82.238 C 305.555 67.750, 305.186 67.780, 317.750 80.100 C 330.289 92.396, 330.311 92.092, 315.846 105.930 L 304.692 116.600 306.466 119.308 L 308.240 122.015 312.870 118.697 C 315.416 116.872, 322.850 111.602, 329.389 106.985 C 341.878 98.168, 344.990 94.625, 344.996 89.218 C 345.003 83.397, 342.449 79.740, 329.231 66.642 C 317.005 54.526, 316.002 53.764, 311.877 53.457 C 309.470 53.277, 306.600 53.379, 305.500 53.682 M 86.500 76.850 C 82.237 79.468, 75.185 87.414, 74.421 90.460 C 74.065 91.878, 74.320 94.358, 74.987 95.970 C 76.227 98.963, 83.481 106.293, 90.301 111.444 L 94.103 114.316 98.563 109.938 L 103.023 105.561 94.012 96.512 C 89.055 91.535, 85 87.133, 85 86.731 C 85 84.513, 88.399 86.935, 96.234 94.733 L 105.008 103.466 109.516 98.958 L 114.024 94.450 107.833 87.475 C 96.716 74.949, 92.784 72.991, 86.500 76.850 M 180.863 76.072 C 133.148 83.080, 92.744 118.063, 79.393 163.929 C 68.750 200.487, 74.414 237.399, 95.532 269.121 C 118.460 303.562, 156.994 324, 199 324 C 290.740 324, 350.822 226.978, 310.157 144.500 C 292.254 108.189, 259.007 83.503, 218.619 76.533 C 209.208 74.909, 190.350 74.678, 180.863 76.072 M 294.465 82.250 C 290.559 86.237, 286.533 90.771, 285.518 92.324 L 283.674 95.147 288.128 99.602 L 292.583 104.056 301.417 95.028 C 306.276 90.063, 310.645 86, 311.126 86 C 313.491 86, 311.229 89.235, 303.284 97.217 L 294.568 105.973 298.487 109.987 C 300.642 112.194, 302.963 114, 303.643 114 C 304.323 114, 309.024 110.007, 314.089 105.127 C 323.224 96.324, 323.293 96.221, 322.753 92.197 C 321.740 84.646, 311.832 75, 305.087 75 C 302.038 75, 300.619 75.969, 294.465 82.250 M 178.136 79.538 C 145.850 85.212, 115.033 105.391, 97.575 132.289 C 83.381 154.160, 77.594 173.605, 77.574 199.500 C 77.548 232.153, 88.540 259.812, 110.879 283.307 C 145.515 319.735, 198.801 331.051, 245.337 311.861 C 280.613 297.314, 306.244 267.234, 316.794 228 C 319.111 219.385, 319.349 216.729, 319.349 199.500 C 319.349 182.234, 319.114 179.625, 316.774 170.915 C 304.390 124.820, 272.686 93.147, 227.085 81.314 C 214.792 78.124, 191.079 77.264, 178.136 79.538 M 187.812 92.250 C 183.758 105.340, 185.058 118.137, 191.799 131.500 L 194.321 136.500 195.691 133.183 C 200.101 122.500, 201.059 111.500, 198.453 101.460 C 196.545 94.112, 192.466 85, 191.084 85 C 190.520 85, 189.047 88.263, 187.812 92.250 M 210.160 90 C 205.479 98.093, 203 106.976, 203 115.650 C 203 123.176, 205.558 136, 207.059 136 C 208.831 136, 215.829 119.939, 217.061 113.045 C 218.440 105.332, 217.417 94.443, 214.690 87.791 L 213.341 84.500 210.160 90 M 167.664 90.931 C 166.334 97.578, 166.967 109.682, 168.985 116.217 C 171.683 124.952, 180.686 138.647, 182.523 136.811 C 182.784 136.550, 183.287 132.912, 183.640 128.727 C 184.782 115.226, 180.426 101.244, 172.186 91.960 L 168.328 87.612 167.664 90.931 M 230.678 95.082 C 222.245 104.659, 217.985 116.340, 218.015 129.799 C 218.037 139.455, 218.889 140.116, 223.846 134.327 C 233.911 122.570, 239.384 103.740, 236.125 92.082 C 235.474 89.754, 235.271 89.866, 230.678 95.082 M 147.017 99.750 C 147.047 106.179, 149.706 116.475, 153.044 123.088 C 156.180 129.299, 167.558 142, 169.987 142 C 170.837 142, 170.965 140.146, 170.452 135.250 C 169.528 126.418, 166.776 117.611, 163.164 111.918 C 160.229 107.292, 149.346 96, 147.823 96 C 147.371 96, 147.008 97.688, 147.017 99.750 M 246.046 107.750 C 241.141 112.680, 237.391 117.512, 235.743 121.029 C 233.109 126.647, 229.317 142.650, 230.370 143.703 C 230.687 144.021, 233.426 142.409, 236.455 140.122 C 242.549 135.520, 249.034 127.529, 251.603 121.455 C 255.509 112.220, 257.375 100, 254.879 100 C 254.262 100, 250.287 103.487, 246.046 107.750 M 40.500 106.370 C 35.290 108.778, 32.510 113.079, 26.037 128.743 C 20.658 141.758, 19.811 144.630, 20.236 148.401 C 20.806 153.455, 23.939 158.406, 27.829 160.398 C 30.517 161.775, 66.839 169.544, 67.412 168.864 C 67.580 168.664, 67.998 167.331, 68.340 165.903 C 68.948 163.361, 68.657 163.195, 54.396 157.996 C 35.806 151.219, 36.133 151.832, 42.525 135.738 C 46.920 124.670, 49.452 121, 52.692 121 C 53.377 121, 60.041 123.700, 67.500 127 C 74.959 130.300, 81.261 133, 81.505 133 C 81.749 133, 82.594 131.753, 83.382 130.228 L 84.815 127.457 67.490 116.679 C 49.447 105.454, 45.633 103.997, 40.500 106.370 M 329.575 116.980 C 313.378 127.725, 313.049 128.013, 314.173 130.480 C 314.804 131.866, 315.651 133, 316.054 133 C 316.457 133, 322.507 130.300, 329.500 127 C 343.118 120.573, 345.769 119.982, 348.322 122.804 C 350.568 125.285, 359 144.780, 359 147.490 C 359 150.935, 356.151 152.756, 342.353 158.126 C 335.284 160.878, 329.199 163.438, 328.830 163.815 C 328.462 164.192, 328.687 165.677, 329.330 167.115 L 330.500 169.731 349.942 165.262 C 360.636 162.805, 370.446 160.099, 371.743 159.248 C 373.041 158.398, 374.796 156.362, 375.643 154.723 C 378.504 149.190, 377.692 144.474, 371.137 128.561 C 367.752 120.345, 364.345 112.650, 363.566 111.461 C 361.543 108.373, 355.936 106, 350.662 106 C 346.561 106, 344.539 107.053, 329.575 116.980 M 128 108.818 C 128 109.269, 128.718 112.081, 129.595 115.068 C 132.056 123.446, 136.777 131.520, 142.576 137.268 C 147.945 142.590, 158.593 149.740, 159.620 148.713 C 160.513 147.820, 157.113 137.166, 153.908 130.817 C 150.410 123.888, 141.968 115.169, 134.746 111.028 C 129.248 107.874, 128 107.466, 128 108.818 M 266.978 115.750 C 259.044 119.772, 248.961 130.100, 245.256 138 C 241.417 146.186, 240.296 151, 242.229 151 C 244.783 151, 255.442 143.940, 260.728 138.747 C 266.038 133.531, 271.974 123.558, 273.821 116.750 C 275.079 112.113, 274.360 112.008, 266.978 115.750 M 112 124.191 C 112 127.077, 119.172 138.224, 124.478 143.585 C 130.480 149.649, 140.166 155.283, 146.906 156.631 C 150.862 157.422, 150.861 156.395, 146.900 148.964 C 142.725 141.130, 134.414 132.986, 126.236 128.714 C 118.496 124.672, 112 122.607, 112 124.191 M 51.822 125.847 C 49.499 127.012, 47.677 129.220, 45.657 133.323 C 40.241 144.323, 41.096 149.976, 48.765 153.872 C 52.577 155.808, 69.053 161.281, 69.555 160.778 C 70.730 159.601, 73.923 149.545, 73.296 148.998 C 72.858 148.616, 67.657 146.383, 61.738 144.037 C 55.819 141.690, 50.749 139.403, 50.472 138.954 C 49.070 136.687, 52.830 137.446, 63.133 141.511 C 69.385 143.978, 74.778 145.997, 75.117 145.998 C 75.456 145.999, 76.712 143.645, 77.908 140.767 C 80.494 134.544, 80.585 134.665, 69.371 129.466 C 58.595 124.470, 55.743 123.882, 51.822 125.847 M 337.459 125.472 C 335.275 126.117, 329.790 128.569, 325.271 130.920 L 317.054 135.195 318.614 138.847 C 319.472 140.856, 320.574 143.512, 321.062 144.750 C 321.551 145.988, 322.122 147, 322.331 147 C 322.540 147, 327.260 145.010, 332.821 142.578 C 345.932 136.844, 347 136.521, 347 138.283 C 347 139.085, 344.072 140.933, 340.250 142.542 C 336.538 144.106, 331.157 146.409, 328.292 147.661 L 323.085 149.937 325.160 154.719 C 326.301 157.348, 327.552 159.848, 327.940 160.272 C 328.327 160.697, 331.596 160.133, 335.202 159.019 C 351.448 154.001, 355.564 150.576, 354.659 142.828 C 354.058 137.688, 350.265 129.408, 347.358 126.891 C 344.642 124.539, 341.934 124.151, 337.459 125.472 M 281 131.276 C 268.931 135.406, 260.064 142.256, 253.529 152.500 C 249.199 159.289, 248.519 161.277, 250.756 160.613 C 251.715 160.328, 253.850 159.782, 255.500 159.399 C 261.023 158.117, 269.355 153.969, 274.721 149.830 C 279.444 146.186, 290 132.428, 290 129.916 C 290 128.546, 288.170 128.822, 281 131.276 M 99 142.997 C 99 143.545, 102.207 147.370, 106.127 151.497 C 111.041 156.670, 115.175 159.945, 119.439 162.044 C 125.550 165.053, 141.422 168.911, 142.648 167.686 C 143.854 166.479, 134.817 155.861, 128.834 151.457 C 124.985 148.623, 119.957 146.126, 114.859 144.515 C 106.728 141.947, 99 141.207, 99 142.997 M 184.275 145.479 C 174.864 148.122, 166.857 152.921, 159.400 160.389 C 145.396 174.414, 139.966 193.507, 144.506 212.760 C 149.007 231.853, 164.615 247.810, 184.372 253.517 C 192.538 255.875, 209.153 255.200, 217.500 252.169 C 234.874 245.862, 249.127 229.709, 253.023 211.912 C 254.795 203.817, 253.856 187.952, 251.166 180.539 C 245.638 165.304, 233.339 153.054, 217.500 147.008 C 209.766 144.056, 192.219 143.248, 184.275 145.479 M 184 148.888 C 174.617 151.925, 167.796 156.016, 161.506 162.379 C 140.577 183.551, 140.749 216.271, 161.899 237 C 172.455 247.347, 183.749 251.966, 198.540 251.988 C 212.776 252.009, 223.537 247.900, 233.860 238.500 C 245.317 228.068, 251 215.337, 251 200.105 C 251 184.013, 246.808 173.810, 235.517 162.423 C 224.727 151.542, 213.604 146.989, 198 147.066 C 192.683 147.092, 187.440 147.774, 184 148.888 M 290 148.690 C 279.058 150.520, 267.143 157.342, 259.698 166.040 C 255.153 171.349, 255.952 172.070, 265.120 170.931 C 273.493 169.891, 281.612 167.053, 287.168 163.223 C 291.244 160.414, 302 149.780, 302 148.560 C 302 147.943, 293.947 148.030, 290 148.690 M 189.500 161.348 C 169.599 166.523, 156.390 186.283, 159.921 205.594 C 162.372 219.003, 170.341 229.457, 182.419 235.109 C 198.169 242.479, 215.727 238.738, 227.900 225.419 C 234.669 218.013, 237.317 210.940, 237.417 200 C 237.541 186.318, 232.566 176.169, 221.715 167.967 C 212.979 161.365, 199.826 158.662, 189.500 161.348 M 92.046 161.824 L 88.592 162.500 93.932 167.165 C 100.625 173.013, 106.981 176.500, 114.535 178.467 C 120.948 180.137, 136.538 180.557, 137.448 179.084 C 138.140 177.964, 131.091 171.770, 125.097 168.230 C 116.143 162.944, 101.164 160.040, 92.046 161.824 M 282.500 169.404 C 272.281 172.650, 259.782 181.182, 261.999 183.399 C 262.673 184.073, 267.245 184.471, 273.800 184.426 C 282.505 184.365, 285.619 183.917, 290.500 182.019 C 297.425 179.328, 303.309 175.871, 307.288 172.156 C 309.796 169.814, 309.897 169.482, 308.288 168.847 C 305.273 167.656, 286.743 168.057, 282.500 169.404 M 20.009 171.855 C 17.969 172.950, 15.617 175.476, 14.275 178.013 C 12.160 182.011, 12 183.541, 12 199.707 C 12 218.773, 12.444 220.671, 17.994 225.341 C 22.977 229.534, 26.247 229.569, 46.648 225.644 C 56.892 223.673, 65.458 221.875, 65.685 221.648 C 65.912 221.422, 65.785 219.993, 65.404 218.473 L 64.711 215.711 49.587 216.385 C 29.479 217.282, 30.594 218.206, 30.178 200.303 C 29.756 182.117, 28.627 183.139, 49.550 182.776 L 65.500 182.500 65.500 179.563 L 65.500 176.626 46.500 173.335 C 24.115 169.457, 24.447 169.475, 20.009 171.855 M 348.500 173.696 C 339.150 175.619, 331.427 177.261, 331.338 177.346 C 331.249 177.431, 331.427 178.805, 331.734 180.401 L 332.291 183.301 347.662 182.667 C 367.859 181.833, 367 181.089, 367 199.429 C 367 210.303, 366.701 213.156, 365.429 214.429 C 363.598 216.259, 364.526 216.182, 346.374 216.008 L 332.249 215.872 331.569 218.581 C 331.195 220.070, 331.252 221.612, 331.695 222.007 C 332.138 222.402, 341.624 224.247, 352.775 226.107 L 373.051 229.489 376.750 227.494 C 378.792 226.393, 381.476 223.708, 382.741 221.500 C 384.940 217.660, 385.021 216.733, 384.766 198.313 L 384.500 179.126 381.500 175.940 C 377.889 172.105, 373.228 169.964, 368.782 170.101 C 366.977 170.156, 357.850 171.774, 348.500 173.696 M 99 180.594 C 97.625 180.832, 93.619 181.764, 90.098 182.665 C 84.164 184.185, 83.835 184.411, 85.598 185.765 C 89.790 188.983, 101.849 193.980, 107.605 194.884 C 111.065 195.427, 116.481 195.496, 120.105 195.043 C 127.241 194.151, 135 192.045, 135 191.001 C 135 189.931, 125.673 185.124, 119.435 182.978 C 113.680 180.998, 103.516 179.812, 99 180.594 M 38.500 184.945 C 34.116 186.740, 32.546 189.849, 32.160 197.505 C 31.379 212.977, 34.401 215.606, 51.896 214.668 C 58.193 214.331, 63.742 213.658, 64.227 213.173 C 64.712 212.688, 64.972 209.687, 64.804 206.504 L 64.500 200.716 52 200.608 C 34.966 200.461, 34.618 198.649, 51.500 198 L 64.500 197.500 64.500 191.500 L 64.500 185.500 59.500 184.838 C 52.497 183.910, 40.885 183.969, 38.500 184.945 M 337.750 184.735 L 333 185.110 333 191.982 L 333 198.854 346 198.276 C 357.651 197.758, 359 197.869, 359 199.349 C 359 200.799, 357.417 201, 346 201 L 333 201 333 207.361 L 333 213.721 338.250 214.352 C 347.323 215.442, 356.936 215.085, 359.909 213.547 C 363.423 211.730, 365.209 207.531, 365.348 200.753 C 365.674 184.870, 362.131 182.813, 337.750 184.735 M 283 186.607 C 278.424 187.450, 266.533 192.034, 264.109 193.891 L 261.718 195.721 268.109 197.896 C 277.055 200.941, 287.843 201.600, 296.259 199.617 C 302.956 198.039, 312.303 193.936, 313.458 192.068 C 315.092 189.423, 291.082 185.118, 283 186.607 M 101.089 199.412 C 95.148 200.921, 84 205.937, 84 207.102 C 84 208.341, 96.148 211.951, 102.500 212.600 C 111.809 213.552, 127.387 209.746, 133.091 205.127 C 135.246 203.383, 135.207 203.349, 128.480 201.141 C 119.907 198.327, 108.261 197.592, 101.089 199.412 M 268.054 205.596 C 265.058 206.401, 262.419 207.248, 262.188 207.479 C 261.317 208.349, 271.547 214.021, 277.891 216.185 C 282.780 217.853, 286.712 218.428, 293 218.396 C 303.053 218.344, 313.792 215.660, 312.101 213.621 C 310.689 211.920, 300.598 207.005, 295.091 205.336 C 289.355 203.598, 274.972 203.736, 268.054 205.596 M 112.389 215.423 C 105.016 217.106, 99.309 219.874, 92.076 225.276 C 86.787 229.227, 86.712 229.350, 89.076 230.256 C 90.409 230.766, 95.325 231.223, 100 231.271 C 112.838 231.403, 122.988 227.854, 133.281 219.634 C 136.304 217.221, 136.763 216.447, 135.570 215.779 C 132.753 214.203, 118.682 213.987, 112.389 215.423 M 260.155 219.883 C 259.158 220.515, 260.302 221.951, 264.584 225.438 C 271.081 230.731, 275.229 233.013, 282.500 235.295 C 289.565 237.512, 297.141 238.306, 303.231 237.468 L 308.463 236.749 303.422 232.124 C 297.213 226.429, 290.193 222.546, 282.465 220.533 C 276.144 218.886, 262.361 218.485, 260.155 219.883 M 124.265 229.542 C 115.479 231.908, 108.841 235.947, 101.506 243.390 L 94.500 250.500 99.129 250.800 C 105.120 251.188, 115.634 248.726, 122.205 245.396 C 127.283 242.823, 138.265 233.241, 140.130 229.758 C 140.978 228.172, 140.504 228.006, 135.285 228.066 C 132.103 228.102, 127.144 228.766, 124.265 229.542 M 57 231.565 C 51.775 232.795, 43.023 234.822, 37.550 236.070 C 24.762 238.986, 20.998 241.969, 20.247 249.781 C 19.800 254.432, 20.416 256.551, 26.532 271.397 C 34.674 291.159, 35.912 292.500, 46 292.500 L 52.500 292.500 68.224 282 C 76.872 276.225, 83.945 271.050, 83.942 270.500 C 83.939 269.950, 83.329 268.700, 82.588 267.722 C 81.324 266.056, 80.401 266.325, 67.979 271.972 C 53.812 278.413, 51.181 278.999, 48.784 276.250 C 47.293 274.540, 39.802 257.762, 38.494 253.201 C 37.224 248.777, 40.024 246.691, 54.939 240.952 C 68.584 235.702, 69.071 235.416, 68.476 233.003 C 68.136 231.626, 67.553 230.236, 67.179 229.914 C 66.806 229.591, 62.225 230.334, 57 231.565 M 329.720 230.613 C 329.324 231.009, 329 232.344, 329 233.579 C 329 235.433, 330.178 236.270, 335.750 238.377 C 339.462 239.781, 345.872 242.204, 349.992 243.761 C 360.441 247.711, 360.614 248.470, 354.578 263.905 C 350.027 275.543, 348.287 278, 344.597 278 C 343.752 278, 336.922 275.284, 329.418 271.964 C 316.604 266.295, 315.691 266.036, 314.419 267.714 C 313.673 268.696, 313.049 270.027, 313.032 270.672 C 312.984 272.441, 346.410 293.030, 350.375 293.673 C 354.696 294.375, 361.292 290.906, 363.943 286.538 C 364.957 284.867, 368.548 276.827, 371.924 268.671 C 378.544 252.674, 378.809 250.503, 374.920 244.109 C 371.881 239.111, 367.926 237.470, 350.708 234.062 C 341.793 232.298, 333.586 230.638, 332.470 230.374 C 331.353 230.110, 330.116 230.218, 329.720 230.613 M 254 231.768 C 254 232.190, 256.137 235.082, 258.750 238.194 C 266.579 247.519, 272.609 251.614, 283.355 254.902 C 289.912 256.909, 298 257.713, 298 256.359 C 298 254.675, 289.947 245.440, 285.449 241.965 C 279.150 237.099, 272.891 234.296, 264.227 232.460 C 256.578 230.839, 254 230.665, 254 231.768 M 58.161 241.430 C 42.761 246.892, 40.282 250.130, 43.549 260.518 C 45.785 267.626, 48.752 272.104, 52.381 273.850 C 54.858 275.041, 55.912 274.938, 61.344 272.980 C 67.083 270.911, 80 264.307, 80 263.442 C 80 263.230, 78.900 260.571, 77.556 257.532 C 74.758 251.204, 76.450 251.161, 61.097 257.942 C 54.657 260.786, 51.371 261.771, 50.667 261.067 C 49.672 260.072, 51.910 258.879, 68.744 251.435 L 74.012 249.105 72.006 244.015 C 70.903 241.216, 70 238.718, 70 238.463 C 70 237.516, 67.260 238.203, 58.161 241.430 M 142.209 239.608 C 128.751 243.098, 115.362 253.431, 109.624 264.756 C 106.538 270.845, 106.736 270.943, 116.217 268.015 C 128.405 264.250, 139.290 255.232, 145.567 243.699 C 147.014 241.040, 148.041 238.723, 147.849 238.550 C 147.657 238.377, 145.119 238.853, 142.209 239.608 M 325.445 243.721 C 324.075 246.819, 323.302 249.670, 323.727 250.058 C 324.152 250.445, 329.563 252.704, 335.750 255.077 C 342.123 257.522, 347 259.958, 347 260.696 C 347 262.538, 346.865 262.505, 333.724 257.393 C 327.211 254.859, 321.764 252.946, 321.621 253.143 C 321.478 253.339, 320.394 255.888, 319.212 258.806 L 317.064 264.112 327.282 268.975 C 340.149 275.099, 341.746 275.441, 345.840 272.951 C 349.949 270.452, 354.998 260.246, 354.999 254.437 C 355 247.863, 350.419 244.754, 333.218 239.655 L 327.936 238.089 325.445 243.721 M 247.502 244.102 C 248.965 248.900, 255.051 257.758, 260.286 262.710 C 265.997 268.111, 271.157 271.130, 279.702 274.069 C 284.671 275.779, 285 275.785, 285 274.173 C 285 270.939, 277.504 259.764, 271.773 254.454 C 265.884 248.998, 256.077 243.516, 250.136 242.359 C 246.943 241.738, 246.809 241.827, 247.502 244.102 M 148.530 251.175 C 137.165 257.037, 125.634 271.578, 123.369 282.906 C 122.578 286.862, 123.605 286.861, 131.036 282.900 C 139.816 278.220, 147.433 270.083, 151.952 260.555 C 156.342 251.299, 157.325 247.979, 155.656 248.048 C 155.020 248.075, 151.814 249.482, 148.530 251.175 M 238.099 253.944 C 240.534 264.783, 245.272 273.180, 253.118 280.565 C 258.754 285.869, 267.675 291.658, 268.674 290.660 C 269.559 289.774, 267.177 281.251, 264.409 275.400 C 260.581 267.308, 254.570 260.526, 246.357 255.033 C 242.219 252.265, 238.468 250, 238.023 250 C 237.577 250, 237.611 251.775, 238.099 253.944 M 162.500 257.765 C 156.468 262.183, 149.480 270.120, 146.577 275.848 C 143.735 281.457, 141.038 291.622, 141.015 296.812 L 141 300.124 145.630 296.812 C 151.840 292.370, 158.210 284.951, 161.390 278.456 C 164.328 272.455, 167.262 260.981, 166.803 257.282 L 166.500 254.836 162.500 257.765 M 227 262.222 C 227 274.927, 232.745 287.596, 242.862 297.199 L 249.500 303.500 249.828 299.500 C 250.925 286.120, 241.700 267.331, 229.913 258.938 L 227 256.864 227 262.222 M 173.819 264.750 C 165.034 273.936, 160.823 284.922, 160.774 298.787 C 160.755 303.895, 161.043 308.376, 161.413 308.746 C 162.440 309.773, 169.505 301.218, 173.069 294.632 C 174.815 291.404, 176.858 286.454, 177.610 283.632 C 179.075 278.128, 179.524 261, 178.203 261 C 177.765 261, 175.792 262.688, 173.819 264.750 M 214.695 263.151 C 211.011 278.275, 215.311 295.962, 225.531 307.736 L 228.799 311.500 229.631 307.500 C 232.677 292.849, 228.183 276.442, 217.620 263.651 L 215.267 260.802 214.695 263.151 M 187.512 267 C 185.933 269.475, 183.532 274.650, 182.177 278.500 C 179.063 287.350, 178.886 299.501, 181.742 308.500 L 183.646 314.500 186.788 309.609 C 194.280 297.949, 196.469 281.606, 192.295 268.500 L 190.384 262.500 187.512 267 M 200.100 270.413 C 195.774 284.419, 196.688 296.497, 203.026 309.051 C 206.733 316.396, 207.004 316.216, 210.034 304.369 C 212.390 295.155, 212.520 288.418, 210.492 280.632 C 208.741 273.909, 204.258 264, 202.968 264 C 202.480 264, 201.189 266.886, 200.100 270.413 M 71.500 289.525 C 46.144 307.693, 45.909 310.075, 67.329 331.720 C 79.052 343.565, 80.850 345.005, 84.631 345.572 C 90.118 346.395, 94.901 344.749, 98.696 340.731 C 101.914 337.325, 120 310.613, 120 309.267 C 120 308.835, 119.022 307.871, 117.827 307.124 C 115.777 305.844, 115.095 306.367, 105.719 316.407 C 94.041 328.911, 93.040 329.593, 89.259 327.623 C 84.516 325.151, 70 309.523, 70 306.889 C 70 305.215, 73.261 301.303, 81.272 293.366 C 91.867 282.869, 92.460 282.072, 91.150 280.099 C 90.383 278.945, 89.248 278.014, 88.628 278.030 C 88.008 278.047, 80.300 283.219, 71.500 289.525 M 306.503 280.233 C 304.898 282.461, 305.059 282.679, 315.947 293 C 330.157 306.469, 330.131 306.155, 318.090 318.750 C 305.939 331.462, 306.061 331.471, 291.977 316.750 L 281.213 305.500 279.071 307.437 C 277.893 308.502, 277.151 309.951, 277.422 310.657 C 278.889 314.481, 299.917 342.588, 302.480 344.151 C 306.377 346.527, 312.107 346.502, 316.790 344.087 C 318.830 343.034, 325.744 336.847, 332.154 330.337 C 342.819 319.504, 343.866 318.106, 344.502 313.849 C 345.906 304.457, 343.467 301.343, 325.142 289.127 C 317.089 283.758, 309.968 279.051, 309.318 278.666 C 308.646 278.268, 307.433 278.944, 306.503 280.233 M 89.285 288.186 C 81.558 294.691, 76.080 300.393, 74.959 303.098 C 73.165 307.430, 75.251 311.981, 81.966 318.386 C 88.363 324.488, 91.476 325.357, 96.900 322.552 C 99.831 321.036, 112.967 306.263, 112.988 304.458 C 112.995 303.885, 111.080 301.532, 108.733 299.228 L 104.465 295.040 95.601 304.588 C 89.307 311.366, 86.426 313.826, 85.666 313.066 C 84.581 311.981, 85.300 311.077, 97.450 298.257 L 102.419 293.013 98.506 289.007 C 96.355 286.803, 94.251 285, 93.832 285 C 93.413 285, 91.366 286.434, 89.285 288.186 M 298.193 289.304 L 293.969 293.608 302.984 302.430 C 307.943 307.282, 312 311.645, 312 312.126 C 312 314.491, 308.765 312.229, 300.783 304.284 L 292.027 295.568 288.013 299.487 C 285.806 301.642, 284 303.963, 284 304.643 C 284 305.323, 287.938 309.960, 292.750 314.947 C 300.597 323.078, 301.871 324.013, 305.100 324.007 C 312.085 323.994, 323 313.229, 323 306.353 C 323 303.892, 322.007 301.903, 319.250 298.842 C 315.164 294.305, 304.346 285, 303.156 285 C 302.749 285, 300.516 286.937, 298.193 289.304 M 116.182 330.493 C 104.893 348.538, 103.696 351.314, 105.066 356.275 C 106.688 362.151, 111.420 365.444, 128.399 372.509 C 147.330 380.387, 149.793 380.485, 156.578 373.624 C 160.565 369.593, 160.731 369.140, 163.975 353.500 C 165.801 344.700, 167.341 335.925, 167.397 334 C 167.487 330.945, 167.170 330.462, 164.905 330.199 C 162.427 329.911, 162.096 330.493, 157.511 343.199 C 152.343 357.521, 150.871 360, 147.538 360 C 143.555 360, 124.585 352.041, 122.214 349.375 C 119.459 346.277, 119.428 346.408, 126.781 329.640 C 132.205 317.270, 132.347 316.727, 130.519 315.390 C 129.473 314.625, 128.141 314, 127.559 314.001 C 126.976 314.002, 121.857 321.423, 116.182 330.493 M 267.098 315.750 L 264.975 317.500 270.988 330.429 C 277.243 343.881, 277.972 346.885, 275.564 349.294 C 273.491 351.366, 253.388 360, 250.635 360 C 247.074 360, 245.550 357.585, 239.893 342.987 C 237.018 335.569, 234.569 329.365, 234.449 329.200 C 234.330 329.034, 232.906 329.484, 231.283 330.200 L 228.334 331.500 232.614 350 C 237.551 371.341, 238.720 374.279, 243.212 376.631 C 249.055 379.689, 254.181 378.817, 270.500 371.985 C 278.750 368.531, 286.334 364.985, 287.352 364.105 C 290.420 361.455, 292 357.378, 292 352.113 C 292 347.438, 291.313 346.090, 281.012 330.563 C 274.969 321.453, 269.844 314, 269.623 314 C 269.402 314, 268.266 314.788, 267.098 315.750 M 129.345 327.560 C 123.966 338.914, 123.006 343.835, 125.445 347.556 C 127.651 350.923, 138.393 355.998, 143.316 355.999 C 148.412 356, 150.622 354.664, 152.881 350.217 C 154.484 347.062, 160 330.926, 160 329.393 C 160 328.953, 149.520 324, 148.588 324 C 148.393 324, 146.122 329.400, 143.541 336 C 139.207 347.082, 137.885 349.241, 136.654 347.250 C 136.399 346.837, 138.173 341.570, 140.595 335.544 C 145.550 323.222, 145.700 322.437, 143.250 321.725 C 142.287 321.446, 139.791 320.479, 137.702 319.575 L 133.905 317.933 129.345 327.560 M 257.308 320.363 C 254.452 321.566, 251.857 322.810, 251.541 323.126 C 251.224 323.442, 253.223 328.768, 255.983 334.961 C 261.415 347.153, 261.656 348, 259.698 348 C 258.981 348, 256.183 342.825, 253.478 336.500 C 250.774 330.175, 248.022 325, 247.364 325 C 246.705 325, 244.057 325.904, 241.479 327.009 C 238.267 328.386, 236.965 329.467, 237.341 330.446 C 237.643 331.232, 238.400 333.771, 239.024 336.087 C 240.706 342.336, 244.810 351.169, 247.225 353.740 C 251.114 357.879, 262.553 355.691, 269.806 349.422 C 274.886 345.031, 274.641 341.777, 268.240 328.612 C 265.403 322.776, 262.950 318.039, 262.790 318.087 C 262.631 318.135, 260.164 319.159, 257.308 320.363 M 175.549 334.159 C 175.255 335.447, 173.645 344.768, 171.970 354.873 C 168.495 375.845, 168.726 378.162, 174.750 382.761 C 178.336 385.499, 178.347 385.500, 197.704 385.810 C 216.093 386.104, 217.247 386.010, 220.566 383.959 C 224.476 381.543, 228.004 375.524, 227.992 371.290 C 227.988 369.755, 226.414 360.400, 224.493 350.500 C 222.573 340.600, 221.001 332.465, 221.001 332.423 C 221 332.381, 219.595 332.553, 217.878 332.805 L 214.756 333.263 215.465 348.898 C 216.372 368.926, 217.260 367.884, 199.144 368.061 C 181.101 368.238, 182 369.246, 182 348.845 C 182 335.833, 181.746 333, 180.582 333 C 179.802 333, 178.471 332.734, 177.624 332.409 C 176.572 332.005, 175.914 332.560, 175.549 334.159 M 183.470 344.606 C 182.608 357.241, 183.711 362.290, 187.788 364.376 C 194.541 367.831, 206.241 367.417, 210.721 363.564 C 213.806 360.910, 214.580 355.126, 213.533 342.550 L 212.820 334 206.410 334 L 200 334 200 347 C 200 357.889, 199.756 360, 198.500 360 C 197.244 360, 197 357.889, 197 347 L 197 334 190.596 334 L 184.192 334 183.470 344.606" stroke="none" fill="#f9f7f5" fill-rule="evenodd"/></svg>