<svg xmlns="http://www.w3.org/2000/svg" width="2670" height="517" viewBox="0 0 2670 517" version="1.1"><path d="M 1999.546 34.615 C 1976.415 38.791, 1956.719 47.054, 1940.665 59.319 C 1938.006 61.351, 1935.478 62.796, 1935.049 62.530 C 1934.619 62.264, 1933.420 63.049, 1932.384 64.274 L 1930.500 66.500 1933 64.528 C 1934.375 63.443, 1933.250 64.838, 1930.500 67.627 C 1918.130 80.176, 1907.586 110.724, 1910.483 125.620 L 1911.238 129.500 1912.955 124.500 C 1917.209 112.109, 1921.960 103.940, 1932.160 91.481 C 1947.904 72.250, 1974.161 56.907, 1999 52.423 C 2009.162 50.589, 2029.736 50.651, 2040.619 52.548 C 2066.117 56.994, 2093.121 70.712, 2113.869 89.761 C 2132.604 106.962, 2149.673 134.942, 2156.718 160 C 2157.568 163.025, 2158.924 167.750, 2159.731 170.500 C 2160.537 173.250, 2161.568 180.900, 2162.021 187.500 C 2162.801 198.871, 2162.824 198.609, 2162.461 182.500 C 2161.797 152.981, 2156.174 128.363, 2144.925 105.729 C 2136.794 89.368, 2125.111 72.840, 2119.488 69.744 C 2118.245 69.060, 2114.415 66.475, 2110.976 64 C 2095.408 52.795, 2083.775 46.654, 2067.459 41.028 C 2045.935 33.606, 2019.148 31.077, 1999.546 34.615 M 1377.500 111.681 C 1355.255 114.509, 1338.781 119.198, 1318.807 128.387 C 1310.692 132.121, 1310.701 133, 1318.853 133 C 1328.626 133, 1338.268 130.956, 1360.884 124.090 C 1371.673 120.814, 1384.775 116.867, 1390 115.317 L 1399.500 112.500 1393.500 111.859 C 1386.897 111.153, 1382.077 111.099, 1377.500 111.681 M 1480 112.648 C 1473.609 113.922, 1462.012 117.097, 1458.707 118.478 L 1455.047 120.007 1459.692 127.754 C 1462.247 132.014, 1464.475 135.677, 1464.644 135.893 C 1464.813 136.108, 1465.567 135.774, 1466.319 135.150 C 1469.021 132.908, 1483.433 130.031, 1492.040 130.015 C 1501.334 129.999, 1508.601 131.544, 1518.170 135.571 C 1525.333 138.587, 1537.050 146.269, 1543.211 151.992 C 1549.347 157.691, 1557.122 162.874, 1560.568 163.564 C 1562.726 163.995, 1564.274 163.572, 1566.266 162.006 C 1571.747 157.694, 1568.871 150.592, 1557.713 140.885 C 1543.012 128.095, 1531.644 121.095, 1517.007 115.818 C 1509.446 113.093, 1507.054 112.718, 1495.500 112.451 C 1488.350 112.285, 1481.375 112.374, 1480 112.648 M 1413.500 131.033 C 1405.800 134.290, 1398.938 136.966, 1398.250 136.978 C 1397.563 136.990, 1397 137.614, 1397 138.365 C 1397 140.814, 1392.925 144.985, 1388.668 146.893 C 1383.899 149.030, 1363.331 155.730, 1351.500 159.001 C 1347.100 160.217, 1342.195 161.615, 1340.601 162.106 C 1339.006 162.598, 1334.679 163, 1330.986 163 C 1325.706 163, 1323.706 162.557, 1321.635 160.927 C 1320.186 159.788, 1319 158.213, 1319 157.427 C 1319 156.642, 1318.583 156, 1318.072 156 C 1317.562 156, 1313.644 155.513, 1309.366 154.918 C 1300.243 153.649, 1293.677 151.584, 1289.500 148.671 C 1287.473 147.257, 1286.926 147.110, 1287.813 148.217 C 1288.902 149.578, 1288.874 150.342, 1287.649 152.713 C 1281.779 164.063, 1286.851 174.737, 1300.619 180.011 C 1308.723 183.115, 1326.043 183.113, 1341 180.007 C 1357.056 176.672, 1357.644 176.524, 1371 172.489 C 1377.875 170.412, 1386.230 167.928, 1389.566 166.970 C 1392.903 166.012, 1400.328 163.511, 1406.066 161.411 C 1414.372 158.372, 1417.943 157.584, 1423.574 157.547 C 1429.808 157.506, 1431.082 157.830, 1434.297 160.280 C 1437.959 163.071, 1441.808 168.068, 1446.023 175.505 C 1450.340 183.122, 1458 198.967, 1458 200.280 C 1458 201.006, 1458.395 202.028, 1458.877 202.550 C 1459.806 203.556, 1461.752 208.644, 1468.047 226.527 C 1471.380 235.996, 1476.965 256.932, 1478.311 265 C 1478.540 266.375, 1478.787 264.125, 1478.860 260 C 1479.316 234.109, 1462.733 180.074, 1444.026 146.500 C 1437.577 134.925, 1430.475 124.976, 1428.718 125.055 C 1428.048 125.085, 1421.200 127.775, 1413.500 131.033 M 1887.672 136.891 C 1887.302 138.738, 1887 142.669, 1887 145.625 C 1887 148.581, 1886.662 151.019, 1886.250 151.043 C 1885.838 151.066, 1883.475 152.937, 1881 155.201 C 1876.995 158.864, 1876.913 159.019, 1880.250 156.608 C 1882.313 155.117, 1884 154.331, 1884 154.860 C 1884 156.181, 1878.150 161, 1876.546 161 C 1875.830 161, 1874.627 161.787, 1873.872 162.750 C 1872.676 164.275, 1872.699 164.372, 1874.047 163.500 C 1874.898 162.950, 1874.629 163.400, 1873.449 164.500 C 1872.269 165.600, 1867.076 172.800, 1861.908 180.500 C 1852.585 194.390, 1840.273 210.494, 1832.667 218.746 C 1830.489 221.108, 1828.889 223.222, 1829.110 223.443 C 1829.331 223.664, 1834.424 224.575, 1840.427 225.466 C 1850.250 226.925, 1851.475 226.933, 1852.674 225.547 C 1853.407 224.700, 1853.466 224.456, 1852.804 225.004 C 1852.142 225.552, 1850.760 226, 1849.733 226 C 1848.153 226, 1848.390 225.347, 1851.279 221.750 C 1853.156 219.412, 1858.470 211.875, 1863.088 205 C 1872.776 190.579, 1877.543 185.470, 1884.482 182.069 C 1889.198 179.758, 1898 178.432, 1898 180.033 C 1898 180.445, 1899.143 181.070, 1900.540 181.421 C 1901.938 181.771, 1906.526 183.671, 1910.737 185.643 C 1930.015 194.669, 1933.158 195.163, 1974.755 195.711 C 1995.623 195.986, 2009.780 196.547, 2009.446 197.088 C 2009.136 197.589, 2009.112 198, 2009.393 198 C 2010.377 198, 2016 189.124, 2016 187.570 C 2016 186.706, 2016.605 186, 2017.345 186 C 2018.085 186, 2019.497 185.109, 2020.482 184.020 C 2023.122 181.103, 2028.115 180.486, 2032.447 182.542 C 2037.390 184.887, 2039.383 189.001, 2038.714 195.479 C 2038.198 200.484, 2038.244 200.593, 2040.952 200.799 C 2048.749 201.394, 2064.210 209.303, 2070.154 215.738 C 2076.772 222.902, 2082.737 234.852, 2084.013 243.500 C 2084.646 247.790, 2084.764 247.150, 2084.844 239 C 2084.896 233.775, 2084.519 226.272, 2084.006 222.328 C 2082.872 213.596, 2078.266 199.266, 2075.802 196.802 C 2074.811 195.811, 2074.038 194.737, 2074.083 194.417 C 2074.129 194.096, 2073.832 193.533, 2073.423 193.167 C 2073.014 192.800, 2073.003 193.063, 2073.399 193.750 C 2074.481 195.630, 2073.293 195.272, 2069.197 192.481 C 2065.394 189.890, 2052.206 184.411, 2046 182.843 C 2032.104 179.332, 2024.549 178.745, 1983.500 177.988 C 1939.402 177.174, 1936.995 176.927, 1925.606 172.046 C 1920.440 169.831, 1912.707 163.206, 1913.345 161.542 C 1913.586 160.914, 1911.427 159.167, 1908.548 157.659 C 1900.135 153.255, 1891.844 144.133, 1889.329 136.516 L 1888.344 133.531 1887.672 136.891 M 1210.635 149.526 C 1208.508 150.323, 1206.301 150.686, 1205.730 150.333 C 1205.127 149.961, 1204.991 150.176, 1205.405 150.845 C 1205.797 151.480, 1205.735 152, 1205.267 152 C 1204.799 152, 1202.898 156.162, 1201.042 161.250 C 1193.400 182.205, 1191.423 186.937, 1185.304 198.922 C 1181.781 205.821, 1179.365 211.622, 1179.935 211.812 C 1180.505 212.002, 1183.031 213.200, 1185.548 214.474 C 1188.065 215.748, 1189.911 216.578, 1189.651 216.318 C 1189.391 216.058, 1190.235 213.456, 1191.526 210.536 C 1192.818 207.617, 1195.059 201.689, 1196.507 197.364 C 1199.720 187.770, 1204.061 179.036, 1207.581 175.086 C 1210.366 171.960, 1216.547 168.997, 1220.270 169.004 C 1224.117 169.010, 1228.823 172.715, 1231.334 177.714 C 1235.097 185.206, 1241.119 217.316, 1247.985 266.500 C 1249.435 276.887, 1249.806 278.436, 1249.421 272.500 C 1248.083 251.835, 1239.190 190.752, 1232.888 158.945 L 1230.797 148.389 1222.649 148.233 C 1217.608 148.137, 1213.025 148.630, 1210.635 149.526 M 226.500 152.649 C 205.392 154.302, 185.537 161.557, 165.702 174.864 C 159.816 178.814, 155 181.721, 155 181.326 C 155 180.931, 153.443 182.117, 151.539 183.962 C 149.635 185.807, 148.319 187.707, 148.613 188.183 C 148.908 188.660, 148.702 188.926, 148.156 188.775 C 146.611 188.347, 133.523 205.131, 124.196 219.500 C 119.555 226.650, 114.840 233.506, 113.719 234.735 C 111.149 237.551, 105.698 238.638, 102.173 237.037 C 100.703 236.369, 99.852 236.176, 100.281 236.609 C 100.711 237.042, 100.036 238.013, 98.781 238.767 C 96.574 240.094, 97.544 239.976, 101.334 238.457 C 102.844 237.851, 102.608 238.764, 100.001 243.611 C 97.377 248.488, 96.908 250.318, 97.271 254.260 C 97.511 256.878, 98.493 259.887, 99.452 260.947 C 101.139 262.811, 101.071 262.896, 97.347 263.599 C 95.231 263.998, 94.037 264.506, 94.694 264.727 C 96.140 265.214, 95.216 268.038, 93.062 269.718 C 92.203 270.388, 91.770 270.951, 92.101 270.968 C 93.816 271.059, 99.880 268.381, 102.594 266.334 C 104.296 265.050, 107.082 264, 108.785 264 C 110.488 264, 112.160 263.550, 112.500 263 C 113.553 261.296, 118.600 261.898, 121.341 264.054 C 122.777 265.183, 124.439 267.916, 125.034 270.128 C 125.985 273.659, 126.312 273.987, 127.724 272.824 C 130.896 270.211, 135.838 261.286, 136.249 257.431 C 136.479 255.269, 136.026 251.284, 135.243 248.576 C 134.460 245.868, 134.088 242.308, 134.417 240.665 L 135.015 237.677 132.757 239.588 L 130.500 241.500 132.369 239.290 C 133.397 238.074, 134.691 237.174, 135.244 237.290 C 135.797 237.405, 136.477 236.875, 136.755 236.111 C 137.102 235.155, 136.829 234.971, 135.880 235.521 C 135.065 235.993, 134.841 235.948, 135.333 235.410 C 135.792 234.910, 136.654 234.500, 137.250 234.500 C 137.846 234.500, 138.542 233.875, 138.796 233.111 C 139.105 232.185, 138.831 231.986, 137.975 232.515 C 137.127 233.040, 136.937 232.912, 137.415 232.138 C 137.813 231.494, 138.558 231.227, 139.071 231.544 C 140.307 232.308, 142 227.704, 142 223.579 C 142 220.679, 143.511 218.820, 154.750 207.895 C 172.321 190.813, 187.176 181.226, 206 174.817 C 217.027 171.063, 233.014 169.315, 242.899 170.782 C 248.796 171.658, 250.538 171.578, 253.063 170.318 C 255.007 169.349, 257.318 169.025, 259.443 169.423 C 263.115 170.112, 267.991 174.358, 268.015 176.886 C 268.039 179.352, 269.417 181.003, 271.844 181.470 C 277.716 182.601, 292.416 197.956, 297.493 208.262 C 301.744 216.890, 302.535 215.739, 301.690 202.151 C 300.904 189.497, 296.623 176.934, 291.642 172.663 C 290.464 171.653, 290.132 171.160, 290.905 171.568 C 291.862 172.073, 292.069 171.920, 291.554 171.088 C 291.139 170.416, 290.563 170.104, 290.273 170.394 C 289.983 170.684, 287.890 169.660, 285.623 168.119 C 273.061 159.582, 260.004 154.779, 244.728 153.076 C 239.421 152.484, 234.049 152.076, 232.789 152.168 C 231.530 152.261, 228.700 152.477, 226.500 152.649 M 560 153.678 C 542.033 156.596, 526.738 163.093, 507.583 175.944 C 501.887 179.766, 497.007 182.674, 496.739 182.406 C 495.304 180.970, 475.448 206.064, 463.691 224.173 C 458.097 232.789, 455.434 235.992, 453.040 236.984 C 451.151 237.766, 448.449 240.383, 446.424 243.390 C 444.541 246.186, 442.990 247.804, 442.978 246.987 C 442.961 245.851, 440.362 250.691, 438.687 254.978 C 438.366 255.800, 431.656 261.523, 428.232 263.897 C 426.435 265.142, 422.805 266.922, 420.165 267.852 C 416.375 269.187, 414.142 271.009, 409.546 276.521 C 401.123 286.622, 388.559 299.267, 380.500 305.756 C 371.563 312.952, 370.967 313.520, 374 311.954 C 376.306 310.764, 376.251 310.948, 373.286 314.326 L 370.071 317.989 373.594 326.219 C 375.532 330.746, 377.306 334.640, 377.538 334.871 C 378.089 335.422, 391.124 323.025, 402.500 311.133 C 407.450 305.958, 414.875 299.460, 419 296.692 C 427.845 290.759, 439.050 279.434, 441.540 273.911 C 442.510 271.760, 443.685 270, 444.152 270 C 444.618 270, 445 269.401, 445 268.669 C 445 267.937, 446.238 266.708, 447.750 265.938 C 452.818 263.357, 460.818 254.360, 469.923 241 C 473.957 235.082, 477.409 230.562, 486.181 219.718 C 489.635 215.447, 501.968 202.893, 506.742 198.789 C 511.813 194.429, 526.993 184.504, 533.500 181.293 C 549.953 173.176, 559.922 170.807, 577.478 170.841 C 585.198 170.856, 590.590 171.270, 590.788 171.864 C 590.972 172.415, 592.665 171.950, 594.576 170.822 C 600.606 167.265, 609.021 170.622, 610.843 177.313 C 611.321 179.066, 612.226 180.387, 612.856 180.250 C 613.485 180.112, 614 180.340, 614 180.756 C 614 181.172, 615.370 182.118, 617.045 182.859 C 625.701 186.691, 641.333 206.595, 643.017 215.930 C 644.304 223.058, 645.367 206.393, 644.168 197.910 C 642.915 189.057, 638.531 176.885, 635.355 173.446 C 634.175 172.169, 633.390 170.943, 633.611 170.722 C 633.832 170.502, 632.997 169.461, 631.756 168.411 L 629.500 166.500 631.405 168.750 C 633.987 171.800, 632.701 171.578, 627.648 168.102 C 611.531 157.013, 597.294 152.913, 575.685 153.136 C 568.433 153.211, 561.375 153.455, 560 153.678 M 2309 153.629 C 2290.158 157.059, 2275.265 163.410, 2256.435 176.043 C 2250.820 179.811, 2246.008 182.674, 2245.741 182.407 C 2244.339 181.006, 2225.142 205.222, 2213.396 223.208 L 2205.097 235.916 2199.545 237.530 C 2196.164 238.513, 2193.572 239.931, 2192.916 241.158 C 2192.323 242.265, 2191.578 242.912, 2191.261 242.594 C 2190.944 242.277, 2190.111 242.493, 2189.412 243.073 C 2187.896 244.331, 2185.616 240.962, 2185.303 237 C 2185.194 235.625, 2184.800 233.150, 2184.427 231.500 C 2184.054 229.850, 2183.726 227.037, 2183.699 225.250 C 2183.613 219.556, 2182.483 221.726, 2180.576 231.250 C 2171.393 277.090, 2145.712 327.796, 2111.249 368.135 C 2105.978 374.305, 2101.031 379.169, 2099.749 379.442 C 2098.512 379.706, 2096.600 380.112, 2095.500 380.345 C 2093.722 380.721, 2093.750 380.781, 2095.750 380.884 C 2098.548 381.028, 2098.543 381.198, 2095.605 385.771 C 2089.402 395.425, 2090.321 402, 2097.873 402 C 2105.580 402, 2115.105 391.910, 2133.507 364.250 C 2141.767 351.835, 2144.767 346.727, 2151.566 333.500 C 2160.650 315.828, 2165.759 303.705, 2170.527 288.500 C 2176.218 270.350, 2180.148 261.527, 2183.288 259.846 C 2186.600 258.073, 2190 257.832, 2190 259.369 C 2190 261.255, 2198.405 261.289, 2202.613 259.419 C 2205.659 258.066, 2212.263 250.975, 2216.974 244 C 2221.648 237.079, 2233.560 221.411, 2237.490 217.014 C 2248.233 204.997, 2256.329 197.802, 2267.698 190.165 C 2281.366 180.985, 2293.619 175.383, 2306.500 172.424 C 2314.428 170.603, 2339.228 170.185, 2339.788 171.864 C 2339.972 172.415, 2341.665 171.950, 2343.576 170.822 C 2349.687 167.217, 2357.683 170.479, 2360.008 177.525 C 2360.642 179.446, 2361.575 180.763, 2362.081 180.450 C 2362.586 180.138, 2363 180.249, 2363 180.697 C 2363 181.145, 2364.463 182.149, 2366.250 182.929 C 2374.936 186.716, 2391.772 208.585, 2392.096 216.500 C 2392.198 218.987, 2392.381 218.730, 2393.168 215 C 2394.334 209.471, 2393.452 195.129, 2391.561 188.858 C 2389.519 182.088, 2385.003 172.938, 2383.399 172.323 C 2382.636 172.030, 2382.223 171.448, 2382.482 171.029 C 2382.741 170.610, 2381.951 169.420, 2380.726 168.384 L 2378.500 166.500 2380.405 168.750 C 2383.207 172.059, 2381.911 171.554, 2373.488 166.056 C 2365.911 161.109, 2359.363 158.227, 2349.015 155.283 C 2343.634 153.753, 2314.857 152.563, 2309 153.629 M 1819.364 180.742 L 1811.228 181.077 1812.009 184.539 C 1813.406 190.733, 1810.243 199.290, 1805.265 202.782 C 1796.444 208.972, 1786.048 207.813, 1777.044 199.638 C 1775.142 197.912, 1774.122 197.212, 1774.776 198.081 C 1775.695 199.303, 1775.695 200.952, 1774.776 205.331 C 1773.102 213.313, 1774.819 221.187, 1779.225 225.732 C 1781.930 228.523, 1782.226 229.246, 1780.988 230.028 C 1778.057 231.882, 1780.929 230.949, 1787.017 228.069 C 1791.118 226.130, 1795.939 222.495, 1801.275 217.319 C 1811.319 207.577, 1825.384 191.988, 1830.287 185.164 L 1833.997 180 1830.748 180.204 C 1828.962 180.315, 1823.839 180.558, 1819.364 180.742 M 424.796 186.820 C 423.860 187.194, 418.526 194.250, 412.943 202.500 C 402.433 218.033, 395.798 226.747, 385.783 238.171 C 382.566 241.840, 380.287 245.047, 380.717 245.299 C 381.148 245.551, 385.446 246.335, 390.270 247.042 C 398.559 248.258, 399.121 248.223, 400.523 246.414 C 401.338 245.361, 405.676 239.100, 410.162 232.500 C 418.341 220.467, 423.314 214.076, 432.188 204.195 C 438.159 197.548, 440.016 192.199, 437.622 188.545 C 436.210 186.390, 435.229 186.011, 431.227 186.070 C 428.627 186.109, 425.733 186.446, 424.796 186.820 M 1137.537 199.680 C 1130.386 205.088, 1120.382 210.259, 1112.940 212.395 C 1108.550 213.654, 1087.774 217.985, 1086.063 217.997 C 1085.823 217.999, 1086.806 219.238, 1088.249 220.750 C 1093.730 226.495, 1094.040 232.069, 1089.179 237.484 C 1087.705 239.126, 1087.400 239.746, 1088.500 238.863 C 1090.883 236.949, 1098.228 234.557, 1106.500 233 C 1109.800 232.379, 1114.525 231.256, 1117 230.504 C 1119.475 229.753, 1123.344 228.854, 1125.598 228.507 C 1129.585 227.893, 1129.808 227.646, 1133.921 219.311 C 1137.978 211.089, 1144.218 195.883, 1143.733 195.402 C 1143.605 195.274, 1140.816 197.200, 1137.537 199.680 M 363.400 206.165 C 365.224 213.071, 360.706 222.579, 353.966 226.017 C 345.295 230.441, 331.877 227.127, 326.516 219.238 C 323.781 215.213, 323.762 215.237, 322.014 225 C 318.712 243.431, 307.653 266.583, 294.069 283.500 C 285.744 293.867, 260.932 318.612, 254.500 322.962 C 238.654 333.676, 224.137 334.113, 205 324.451 C 199.210 321.527, 193.524 315.684, 194.356 313.514 C 194.698 312.624, 194.571 312.147, 194.074 312.454 C 193.577 312.761, 193.017 312.552, 192.830 311.990 C 192.369 310.606, 179.207 306.229, 173.051 305.412 L 168.083 304.753 149.791 322.247 C 121.379 349.420, 117.958 352.166, 108.572 355.336 C 102.080 357.528, 97.240 357.436, 90.722 354.997 C 81.731 351.633, 76.881 345.030, 76.055 335.030 L 75.500 328.302 65.179 340.703 C 59.502 347.523, 53.736 353.530, 52.364 354.052 C 48.011 355.707, 43.453 355.118, 39.416 352.379 C 37.043 350.768, 36.122 350.442, 37.027 351.534 C 38.106 352.835, 38.500 355.964, 38.500 363.235 L 38.500 373.160 41.766 376.080 C 46.308 380.141, 50.366 379.964, 57.133 375.411 C 65.051 370.082, 70.132 367.869, 72.992 368.503 C 74.371 368.809, 78.415 371.530, 81.978 374.550 C 89.953 381.310, 96.242 383.575, 104.256 382.574 C 113.589 381.408, 122.547 374.977, 149 350.455 C 155.325 344.592, 162.218 338.916, 164.318 337.842 C 173.035 333.385, 181.656 334.484, 201.460 342.579 C 219.473 349.941, 229.100 351.340, 241.680 348.422 C 254.754 345.390, 266.072 338.225, 282.326 322.691 C 287.180 318.052, 292.355 313.656, 293.826 312.921 C 295.297 312.187, 297.250 310.968, 298.167 310.213 C 299.397 309.200, 300.345 309.114, 301.785 309.885 C 302.859 310.460, 304.021 310.645, 304.369 310.298 C 304.716 309.951, 305 310.277, 305 311.022 C 305 311.767, 308.464 315.624, 312.697 319.591 L 320.395 326.805 320.947 335.831 C 321.724 348.509, 324.590 351.913, 337 354.901 C 347.062 357.324, 350.584 359.402, 354.392 365.164 C 356.332 368.099, 362.465 381.075, 368.022 394 C 386.028 435.884, 394.246 450.220, 408.907 465.321 C 417.128 473.788, 425.942 479.573, 436.070 483.148 C 441.194 484.957, 444.632 485.417, 453 485.414 C 469.140 485.408, 479.615 481.881, 496 470.937 C 514.476 458.596, 529.091 437.076, 535.065 413.418 C 537.131 405.234, 539.312 387.314, 538.418 385.867 C 538.084 385.326, 536.577 388.445, 535.070 392.797 C 529.329 409.376, 519.634 424.212, 505.892 437.445 C 501.353 441.815, 498.016 444.783, 498.475 444.041 C 499.039 443.128, 498.930 442.925, 498.138 443.415 C 497.494 443.813, 497.207 444.525, 497.499 444.998 C 498.234 446.187, 488.232 454.706, 480.731 459.282 C 472.134 464.526, 463.525 467, 453.870 467 C 444.326 467, 437.637 464.877, 429.367 459.222 C 422.473 454.508, 416.293 448.309, 419.500 449.325 C 421.086 449.827, 420.993 449.600, 419.050 448.229 C 410.063 441.885, 400.888 432.067, 393.288 420.665 C 386.007 409.738, 379.026 395.517, 365.642 364.339 C 358.757 348.301, 351.991 332.943, 350.606 330.210 L 348.089 325.242 342.294 326.628 C 331.645 329.176, 321.555 325.844, 318.060 318.624 C 316.927 316.284, 316 313.371, 316 312.152 C 316 306.236, 322.112 297.763, 328.459 294.880 C 333.830 292.440, 342.592 292.473, 349.133 294.958 C 353.178 296.496, 354.740 296.678, 356.393 295.805 C 360.859 293.448, 370.832 285.168, 378.388 277.544 L 386.277 269.584 383.388 268.722 C 381.800 268.248, 375.282 267.608, 368.905 267.299 L 357.309 266.738 347.300 274.619 C 328.383 289.513, 320.974 294.250, 315.775 294.774 C 311.389 295.216, 310.787 294.987, 307.389 291.589 C 303.857 288.057, 303.748 287.734, 304.293 282.449 C 304.919 276.383, 305.801 275.119, 317.250 263.865 C 320.962 260.216, 324 256.729, 324 256.115 C 324 255.502, 324.563 254.931, 325.250 254.848 C 327.911 254.523, 328.697 254.226, 335 251.162 C 338.575 249.424, 341.995 248.001, 342.600 248.001 C 344.879 247.999, 374.212 216.812, 382.372 205.715 L 385.156 201.929 373.794 202.215 L 362.432 202.500 363.400 206.165 M 258.437 206.102 C 256.822 207.808, 252.736 211.188, 249.358 213.613 C 245.980 216.037, 242.490 219.130, 241.602 220.485 C 238.233 225.626, 203.330 266.742, 189.334 282.056 L 186.998 284.611 195.662 288.144 L 204.326 291.676 213.937 280.588 C 219.223 274.490, 226.645 265.675, 230.430 261 C 234.216 256.325, 242.309 247.550, 248.416 241.500 C 260.539 229.489, 264.139 223.789, 264.250 216.429 C 264.303 212.881, 263.763 211.362, 261.668 209.175 C 259.171 206.569, 259.117 206.312, 260.724 204.705 C 261.661 203.767, 262.191 203, 261.901 203 C 261.611 203, 260.052 204.396, 258.437 206.102 M 601.405 206.119 C 600.357 207.284, 596.739 210.212, 593.364 212.625 C 589.988 215.039, 585.949 218.698, 584.386 220.757 C 579.278 227.487, 552.507 259.217, 541.179 271.968 C 535.087 278.825, 530.286 284.619, 530.510 284.843 C 530.733 285.067, 534.500 286.717, 538.881 288.510 L 546.845 291.770 555.946 281.508 C 560.951 275.863, 568.442 267.028, 572.591 261.873 C 576.740 256.718, 584.942 247.775, 590.817 242 C 602.867 230.156, 607 223.493, 607 215.910 C 607 212.344, 606.457 210.839, 604.512 209.012 C 602.611 207.225, 602.286 206.360, 603.135 205.337 C 604.948 203.153, 603.473 203.819, 601.405 206.119 M 2350.405 206.119 C 2349.357 207.284, 2345.768 210.191, 2342.429 212.579 C 2339.090 214.967, 2334.152 219.751, 2331.456 223.210 C 2324.892 231.634, 2300.907 259.948, 2289.175 273.123 C 2283.972 278.966, 2279.757 284.083, 2279.808 284.495 C 2279.859 284.906, 2283.519 286.724, 2287.941 288.534 L 2295.981 291.826 2305.305 281.163 C 2310.432 275.298, 2317.720 266.675, 2321.499 262 C 2325.278 257.325, 2333.350 248.542, 2339.435 242.482 C 2351.876 230.094, 2356 223.478, 2356 215.910 C 2356 212.344, 2355.457 210.839, 2353.512 209.012 C 2351.611 207.225, 2351.286 206.360, 2352.135 205.337 C 2353.948 203.153, 2352.473 203.819, 2350.405 206.119 M 2028.492 221.718 C 2027.513 223.248, 2023.005 228.100, 2018.474 232.500 C 2010.529 240.216, 2009.824 241.292, 1998.618 262.782 C 1992.228 275.037, 1987.001 285.387, 1987.002 285.782 C 1987.003 286.177, 1991.390 286.542, 1996.752 286.592 C 2002.113 286.643, 2005.043 286.502, 2003.262 286.280 L 2000.023 285.875 2002.152 281.688 C 2005.711 274.688, 2011.981 266.004, 2018.914 258.469 C 2026.705 250.003, 2031.625 242.107, 2033.473 235.104 C 2035.064 229.071, 2034.425 222.695, 2032.010 220.509 C 2030.410 219.061, 2030.130 219.157, 2028.492 221.718 M 665.154 226 C 660.109 244.971, 653.411 259.720, 642.819 275.185 C 635.053 286.524, 606.646 316.807, 598.741 322.176 C 595.494 324.381, 590.286 327.354, 587.168 328.783 C 575.786 333.999, 558.393 331.594, 544.906 322.940 C 539.738 319.623, 535.390 313.995, 537.154 312.905 C 538.592 312.016, 522.685 306.400, 516.257 305.526 L 511.014 304.814 493.257 321.780 C 460.690 352.896, 456.098 356.163, 444.032 356.809 C 438.377 357.112, 436.722 356.763, 431.707 354.212 L 425.914 351.266 424.591 353.883 C 421.005 360.975, 422.268 370.600, 427.620 376.960 C 430.983 380.956, 438.717 383.394, 445.951 382.738 C 456.274 381.802, 463.821 376.569, 489.371 352.625 C 502.241 340.565, 507.707 336.565, 512.750 335.517 C 515.468 334.952, 516.009 335.140, 516.056 336.671 C 516.087 337.677, 516.650 336.941, 517.306 335.035 C 518.716 330.941, 524.058 327, 528.198 327 C 534.855 327, 538.065 330.565, 539.904 340 C 540.386 342.475, 540.830 343.701, 540.890 342.724 C 540.989 341.120, 541.265 341.083, 543.750 342.338 C 545.263 343.102, 550.325 345.026, 555 346.613 C 562.288 349.088, 564.926 349.484, 573.500 349.390 C 579.963 349.318, 585.003 348.715, 587.750 347.684 C 590.087 346.807, 592 346.303, 592 346.565 C 592 346.826, 593.688 346.180, 595.750 345.128 C 597.813 344.075, 599.827 343.127, 600.227 343.020 C 600.627 342.912, 601.864 342.587, 602.977 342.296 C 605.168 341.723, 605.796 339.020, 603.750 338.968 C 602.900 338.947, 602.992 338.547, 604.039 337.718 C 604.886 337.048, 606.131 334.623, 606.806 332.328 C 609.698 322.498, 623.735 309.061, 639.327 301.198 C 646.411 297.626, 648.365 296.100, 650.850 292.198 C 655.224 285.330, 658.352 277.725, 663.381 261.731 C 671.064 237.296, 671.212 236.647, 669.838 233.393 C 669.166 231.802, 668.107 228.475, 667.484 226 L 666.351 221.500 665.154 226 M 2414.113 226 C 2406.091 256.118, 2395.958 273.276, 2369.810 301.017 C 2353.555 318.262, 2346.634 323.977, 2336.168 328.795 C 2325.019 333.928, 2307.177 331.456, 2293.906 322.940 C 2288.738 319.623, 2284.390 313.995, 2286.154 312.905 C 2287.592 312.016, 2271.686 306.400, 2265.259 305.527 L 2260.019 304.815 2241.759 322.293 C 2209.760 352.923, 2205.191 356.158, 2193.019 356.810 C 2187.379 357.112, 2185.719 356.761, 2180.707 354.212 L 2174.914 351.266 2173.575 353.883 C 2170.962 358.991, 2170.752 364.262, 2172.929 370.062 C 2176.334 379.134, 2184.280 383.706, 2194.958 382.737 C 2205.274 381.802, 2212.826 376.563, 2238.371 352.625 C 2244.901 346.506, 2252.306 340.150, 2254.828 338.500 C 2259.016 335.759, 2260.108 335.510, 2267.456 335.612 C 2274.196 335.705, 2277.040 336.324, 2285 339.429 C 2309.276 348.898, 2310.831 349.323, 2321.500 349.395 C 2331.764 349.465, 2339.827 347.571, 2349.126 342.905 C 2351.121 341.904, 2353.057 341.390, 2353.429 341.762 C 2353.801 342.135, 2353.809 341.665, 2353.446 340.720 C 2353.083 339.774, 2353.191 339, 2353.686 339 C 2354.180 339, 2355.105 337.056, 2355.740 334.681 C 2358.397 324.747, 2372.916 310.405, 2387.103 303.699 C 2390.826 301.940, 2394.084 299.712, 2394.343 298.750 C 2394.601 297.788, 2395.360 297, 2396.029 297 C 2396.924 297, 2396.883 297.462, 2395.872 298.750 C 2394.639 300.323, 2394.671 300.366, 2396.191 299.177 C 2397.120 298.449, 2397.652 297.257, 2397.372 296.528 C 2397.093 295.799, 2397.414 294.862, 2398.086 294.447 C 2398.920 293.932, 2399.051 294.108, 2398.500 295 C 2397.976 295.848, 2398.082 296.067, 2398.802 295.622 C 2399.413 295.245, 2399.672 294.310, 2399.379 293.545 C 2399.077 292.759, 2399.783 291.652, 2401 291 C 2402.247 290.333, 2402.925 289.247, 2402.609 288.423 C 2402.309 287.640, 2402.457 287, 2402.938 287 C 2404.402 287, 2409.522 273.434, 2414.828 255.500 C 2420.824 235.231, 2421.445 232.607, 2420.040 233.475 C 2419.468 233.829, 2419 233.615, 2419 233 C 2419 232.385, 2418.550 232.160, 2418 232.500 C 2417.416 232.861, 2416.958 231.740, 2416.900 229.809 C 2416.845 227.989, 2416.466 225.375, 2416.056 224 C 2415.372 221.702, 2415.215 221.864, 2414.113 226 M 813.544 236.913 C 804.974 253.976, 796.715 282.033, 793.563 304.784 C 792.209 314.563, 791.482 331.076, 792.652 325.500 C 799.059 294.953, 805.550 277.249, 820.048 250.772 C 824.371 242.878, 824.982 237.674, 821.963 234.460 C 820.691 233.107, 819.039 232, 818.291 232 C 817.240 232, 817.173 231.545, 818 230 C 818.589 228.900, 818.834 228, 818.545 228 C 818.256 228, 816.006 232.011, 813.544 236.913 M 2563.050 241.270 C 2551.840 265.534, 2543.865 298.679, 2542.664 326 C 2542.410 331.775, 2542.408 335.150, 2542.660 333.500 C 2547.187 303.801, 2554.121 283.563, 2569.214 256 C 2574.347 246.625, 2575.686 241.649, 2573.947 238.402 C 2573.190 236.987, 2571.298 235.171, 2569.743 234.367 L 2566.915 232.905 2563.050 241.270 M 1055.107 235.332 C 1056.503 236.905, 1056.542 237.628, 1055.401 240.822 C 1053.385 246.467, 1053.729 252.877, 1056.350 258.504 C 1058.210 262.499, 1059.698 264.062, 1063.725 266.254 C 1069.465 269.378, 1075.485 269.835, 1080.020 267.490 C 1084.579 265.132, 1085.281 262.864, 1084.500 253 C 1084.025 247.001, 1084.174 243.544, 1084.971 242.055 L 1086.135 239.879 1082.818 241.601 C 1078.555 243.814, 1069.731 243.810, 1064.500 241.594 C 1062.300 240.661, 1058.925 238.463, 1057 236.709 C 1055.075 234.955, 1054.223 234.335, 1055.107 235.332 M 1163.393 234.765 C 1162.784 235.169, 1159.867 238.425, 1156.911 242 C 1148.472 252.205, 1136.270 264.602, 1127 272.386 C 1122.325 276.312, 1118.500 279.839, 1118.500 280.224 C 1118.500 281.763, 1108.138 291.321, 1102.443 295.034 C 1095.755 299.395, 1086.506 303.439, 1080.754 304.518 L 1077.020 305.219 1079.252 308.359 C 1080.480 310.087, 1083.557 313.652, 1086.090 316.283 C 1090.268 320.621, 1090.941 320.973, 1093.334 320.063 C 1100.024 317.519, 1112.544 310.601, 1116 307.538 C 1117.375 306.319, 1120.075 304.259, 1122 302.961 C 1126.524 299.909, 1135.950 291.071, 1148.228 278.368 C 1159.344 266.869, 1165.253 263.413, 1171.778 264.594 C 1179.555 266.001, 1184.505 270.319, 1189.060 279.669 L 1191.900 285.500 1191.950 275.460 C 1192.030 259.413, 1187.060 244.901, 1178.987 237.608 C 1175.462 234.423, 1174.380 234.002, 1169.747 234.015 C 1166.861 234.024, 1164.002 234.361, 1163.393 234.765 M 1404.665 243.500 C 1401.755 257.437, 1392.218 280.370, 1383.765 293.754 C 1381.563 297.241, 1379.927 300.260, 1380.131 300.463 C 1380.571 300.904, 1390.871 305, 1391.537 305 C 1391.792 305, 1392 304.540, 1392 303.978 C 1392 303.417, 1393.525 299.029, 1395.390 294.228 C 1401.665 278.069, 1406.499 255.026, 1405.822 244.500 L 1405.500 239.500 1404.665 243.500 M 1876.497 242.626 C 1875.415 243.417, 1872.049 244.978, 1869.015 246.096 C 1864.799 247.649, 1862.676 249.216, 1860 252.746 C 1854.686 259.758, 1836.679 278.251, 1829.468 284.101 C 1825.946 286.959, 1823.262 289.614, 1823.502 290.003 C 1823.742 290.391, 1822.827 291.753, 1821.469 293.029 C 1819.238 295.125, 1818.499 295.023, 1818.906 292.676 C 1818.985 292.222, 1818.625 292.114, 1818.106 292.434 C 1817.402 292.869, 1824.871 311.773, 1826.561 313.834 C 1826.711 314.018, 1835.098 305.885, 1845.199 295.762 C 1856.390 284.545, 1866.521 275.360, 1871.135 272.246 C 1879.282 266.749, 1883.512 262.389, 1885.652 257.282 C 1888.365 250.807, 1886.736 245.466, 1881.171 242.588 C 1878.840 241.383, 1878.189 241.388, 1876.497 242.626 M 191.491 244.014 C 191.146 244.572, 189.077 245.940, 186.892 247.055 C 184.607 248.221, 182.467 250.232, 181.852 251.791 C 181.265 253.281, 180.379 255.287, 179.884 256.250 C 178.313 259.302, 179.580 258.195, 186.467 250.500 C 190.159 246.375, 192.941 243, 192.649 243 C 192.357 243, 191.836 243.456, 191.491 244.014 M 530.354 246.542 C 526.866 248.071, 523 252.423, 523 254.820 C 523 255.673, 522.022 257.413, 520.826 258.686 C 519.630 259.958, 518.907 261, 519.220 261 C 519.532 261, 523.033 257.400, 527 253 C 530.967 248.600, 534.052 245.037, 533.856 245.082 C 533.660 245.126, 532.084 245.784, 530.354 246.542 M 1799.250 250.507 C 1795.263 253.684, 1792 256.670, 1792 257.142 C 1792 257.614, 1791.503 258, 1790.896 258 C 1790.289 258, 1785.271 261.187, 1779.745 265.082 C 1774.220 268.977, 1768.754 272.527, 1767.599 272.971 C 1762.378 274.978, 1757 282.938, 1757 288.657 C 1757 291.838, 1759.491 295.592, 1764.885 300.543 L 1769.291 304.586 1769.617 313.380 C 1770.014 324.053, 1771.915 327.800, 1778.508 330.899 C 1780.967 332.054, 1783.476 333, 1784.085 333 C 1787.673 333, 1796.660 336.640, 1799.741 339.341 C 1802.870 342.084, 1808.246 351.967, 1813.969 365.500 C 1822.329 385.271, 1833.608 409.606, 1837.956 417.255 C 1845.097 429.820, 1849.564 435.640, 1859.711 445.596 C 1875.666 461.252, 1895.011 467.147, 1915.500 462.597 C 1933.010 458.709, 1952.609 446.348, 1963.298 432.452 C 1967.503 426.985, 1976 414.244, 1976 413.405 C 1976 413.112, 1977.077 410.517, 1978.394 407.638 C 1982.601 398.441, 1986.119 383.317, 1986.568 372.500 L 1986.983 362.500 1985.154 368 C 1978.714 387.360, 1970.595 399.517, 1951.056 419.053 C 1937.585 432.521, 1934.395 435.175, 1927.257 438.850 C 1913.265 446.054, 1900.464 447.448, 1888.846 443.033 C 1880.223 439.757, 1867.159 430.170, 1868.456 428.071 C 1868.773 427.558, 1868.506 426.813, 1867.862 426.415 C 1867.058 425.918, 1866.961 426.131, 1867.552 427.095 C 1868.026 427.868, 1863.896 424, 1858.376 418.500 C 1841.325 401.514, 1834.399 389.322, 1811.597 336.161 C 1804.204 318.924, 1797.917 304.583, 1797.626 304.292 C 1797.335 304.002, 1794.162 304.347, 1790.576 305.060 C 1773.129 308.528, 1760.819 297.942, 1766.497 284.354 C 1767.865 281.079, 1773.275 274.009, 1774.465 273.941 C 1774.739 273.926, 1776.532 273.258, 1778.450 272.457 C 1783.412 270.383, 1790.524 270.637, 1797.659 273.143 L 1803.818 275.306 1810.659 270.424 C 1817.363 265.641, 1834 249.702, 1834 248.064 C 1834 246.786, 1829.518 246.052, 1817.500 245.361 L 1806.500 244.729 1799.250 250.507 M 2279.354 246.542 C 2275.874 248.067, 2272 252.421, 2272 254.806 C 2272 255.651, 2271.255 257.165, 2270.345 258.171 C 2269.435 259.177, 2268.930 260, 2269.222 260 C 2269.515 260, 2272.775 256.625, 2276.467 252.500 C 2280.159 248.375, 2283.027 245.037, 2282.840 245.082 C 2282.653 245.126, 2281.084 245.784, 2279.354 246.542 M 696.648 251.365 C 690.459 257.205, 687.761 262.021, 684.139 273.696 C 682.399 279.303, 680.065 286.016, 678.951 288.614 C 676.717 293.826, 677.272 294.956, 682.084 294.985 C 684.095 294.997, 685.500 293.791, 688.427 289.541 C 698.701 274.624, 713.645 267.723, 730.551 270.089 C 738.560 271.209, 742.717 273.051, 747.315 277.518 C 749.408 279.550, 751.397 280.936, 751.736 280.598 C 752.074 280.259, 752.553 275.074, 752.801 269.075 L 753.250 258.168 749.019 256.010 C 742.592 252.731, 732.731 251.037, 719.961 251.017 C 710.657 251.003, 707.707 250.635, 704.726 249.115 L 701.030 247.231 696.648 251.365 M 780.549 249.309 C 779.476 249.964, 777.803 251.400, 776.832 252.500 C 775.092 254.471, 775.065 254.457, 774.994 251.500 L 774.922 248.500 773.461 251.865 C 771.453 256.490, 771.631 260.841, 774.010 265.279 C 775.459 267.983, 775.882 270.210, 775.529 273.264 L 775.039 277.500 776.565 272.500 C 777.404 269.750, 779.211 263.782, 780.581 259.237 C 781.952 254.693, 783.329 250.305, 783.643 249.487 C 784.319 247.727, 783.241 247.665, 780.549 249.309 M 2446.755 251.984 C 2440.293 257.673, 2436.637 264.019, 2433.030 275.812 C 2431.295 281.483, 2428.993 288.184, 2427.913 290.703 C 2426.833 293.222, 2426.090 295.424, 2426.262 295.596 C 2426.434 295.768, 2428.358 296.189, 2430.538 296.531 C 2434.301 297.123, 2434.572 296.987, 2435.930 293.827 C 2438.555 287.719, 2448.390 278.579, 2456.279 274.916 C 2462.929 271.828, 2464.291 271.560, 2473.500 271.531 C 2482.464 271.503, 2484.091 271.790, 2489.204 274.301 C 2492.341 275.842, 2496.072 278.486, 2497.495 280.177 C 2498.918 281.868, 2500.337 282.997, 2500.648 282.685 C 2501.681 281.653, 2502.279 265.338, 2501.466 260.379 C 2501.026 257.696, 2500.484 256.282, 2500.262 257.239 C 2499.899 258.802, 2499.582 258.835, 2497.134 257.570 C 2491.149 254.474, 2482.215 253, 2469.356 252.985 C 2456.487 252.971, 2451.182 251.820, 2451.750 249.168 C 2452.128 247.403, 2451.661 247.666, 2446.755 251.984 M 2531.403 251.215 C 2527.363 254.335, 2526.408 255.314, 2525.740 257.018 C 2525.374 257.949, 2525.129 258.035, 2525.079 257.250 C 2525.036 256.563, 2524.550 256, 2524 256 C 2522.532 256, 2522.848 264.098, 2524.427 266.950 C 2525.174 268.297, 2525.559 269.984, 2525.285 270.700 C 2524.740 272.119, 2525.907 272.399, 2527.514 271.235 C 2528.495 270.525, 2535.156 249.822, 2534.587 249.253 C 2534.432 249.099, 2532.999 249.981, 2531.403 251.215 M 1739.882 252.750 C 1739.816 253.162, 1739.806 253.808, 1739.859 254.184 C 1740.024 255.350, 1732.305 261, 1730.547 261 C 1729.631 261, 1729.157 260.555, 1729.493 260.011 C 1729.850 259.434, 1729.424 259.284, 1728.468 259.651 C 1725.973 260.608, 1728.711 261.966, 1733.173 261.985 C 1739.735 262.012, 1745.913 269.794, 1744.292 275.991 C 1743.881 277.562, 1744.130 277.887, 1745.374 277.410 C 1746.262 277.069, 1746.798 276.483, 1746.566 276.106 C 1746.333 275.730, 1747.893 273.527, 1750.031 271.211 C 1752.170 268.895, 1753.530 267, 1753.053 267 C 1752.577 267, 1752.353 266.212, 1752.555 265.250 C 1753.371 261.360, 1753.645 254.101, 1752.959 254.525 C 1752.556 254.774, 1751.671 254.308, 1750.991 253.489 C 1749.602 251.815, 1743.451 251.461, 1742.500 253 C 1742.160 253.550, 1741.432 254, 1740.882 254 C 1740.332 254, 1740.160 253.550, 1740.500 253 C 1740.840 252.450, 1740.866 252, 1740.559 252 C 1740.252 252, 1739.947 252.338, 1739.882 252.750 M 36.607 254.582 C 35.511 257.438, 35.994 265.398, 37.604 271 C 38.473 274.025, 39.522 281, 39.935 286.500 L 40.686 296.500 40.845 285.500 C 41.013 273.776, 39.159 253, 37.944 253 C 37.542 253, 36.941 253.712, 36.607 254.582 M 1655.177 256.923 C 1654.088 260.047, 1654.767 266.548, 1656.974 274.137 C 1657.556 276.137, 1658.416 281.087, 1658.886 285.137 L 1659.741 292.500 1659.870 286.804 C 1660.051 278.874, 1658.011 255.676, 1657.045 254.674 C 1656.607 254.220, 1655.766 255.232, 1655.177 256.923 M 1682.394 266.416 C 1682.095 267.194, 1681.997 269.107, 1682.175 270.666 L 1682.500 273.500 1692 273.601 L 1701.500 273.702 1693.500 273.101 C 1684.376 272.416, 1683 271.816, 1683 268.524 C 1683 267.228, 1683.563 265.940, 1684.250 265.662 C 1685.229 265.267, 1685.222 265.141, 1684.219 265.079 C 1683.514 265.036, 1682.693 265.637, 1682.394 266.416 M 1963 271.925 C 1951.683 278.213, 1947.990 281.713, 1948.033 286.109 C 1948.052 287.974, 1948.905 290.505, 1949.930 291.734 C 1952.894 295.286, 1957.139 293.210, 1961.329 286.158 C 1965.582 279.002, 1972.193 266.968, 1971.799 267.101 C 1971.635 267.157, 1967.675 269.327, 1963 271.925 M 2524.108 277.500 C 2523.913 282.993, 2520.795 294.583, 2517.688 301.371 C 2514.777 307.728, 2506.771 316.731, 2501.508 319.566 C 2499.579 320.605, 2498 321.958, 2498 322.574 C 2498 324.405, 2491.508 330.531, 2487.606 332.383 C 2478.274 336.811, 2466.991 336.692, 2447.718 331.962 C 2438.005 329.579, 2430 324.363, 2430 320.418 C 2430 320.188, 2430.787 319.948, 2431.750 319.885 C 2435.516 319.638, 2425.180 318.118, 2420 318.157 C 2411.789 318.220, 2410.596 318.879, 2404.902 326.500 C 2391.178 344.869, 2374.658 357.572, 2365.448 356.839 C 2363.106 356.653, 2361.412 356.857, 2361.682 357.294 C 2361.951 357.730, 2361.661 358.704, 2361.035 359.458 C 2360.410 360.211, 2359.632 363.998, 2359.307 367.872 L 2358.717 374.917 2362.385 378.585 C 2365.755 381.955, 2366.416 382.213, 2370.492 381.754 C 2376.922 381.029, 2382.949 376.691, 2396 363.398 C 2403.648 355.608, 2409.002 351.016, 2411.984 349.692 C 2419.383 346.404, 2427.447 346.461, 2447.155 349.939 C 2466.104 353.283, 2479.615 353.987, 2487 352.015 C 2492.870 350.447, 2500.852 347.067, 2504 344.817 C 2507.317 342.446, 2515.841 339.934, 2516.570 341.114 C 2516.883 341.619, 2517.523 341.795, 2517.993 341.504 C 2518.464 341.213, 2519.055 341.769, 2519.308 342.738 C 2519.561 343.707, 2519.820 338.970, 2519.884 332.211 C 2520.016 318.227, 2521.348 304.657, 2523.898 291.319 C 2525.023 285.432, 2525.401 280.587, 2524.952 277.819 L 2524.250 273.500 2524.108 277.500 M 2102.538 279.750 C 2099.532 300.464, 2091.028 315.526, 2080.345 319.051 C 2078.495 319.662, 2077.214 320.537, 2077.498 320.997 C 2078.325 322.335, 2069.969 328.914, 2066.065 329.998 C 2060.200 331.628, 2053.835 331.148, 2044.926 328.406 C 2031.017 324.125, 2022.857 322.047, 2015.945 321.029 C 2002.325 319.021, 1999.104 317.966, 1995.228 314.244 L 1991.500 310.663 1994 309.892 C 1997.322 308.868, 1985.210 309.792, 1977.500 311.152 C 1971.536 312.203, 1971.467 312.255, 1966 319.765 C 1958.722 329.764, 1943.061 346.117, 1937.191 349.849 C 1927.041 356.302, 1917.527 356.061, 1909.604 349.152 C 1905.967 345.980, 1905.823 345.926, 1908.332 348.677 C 1911.086 351.695, 1911.120 351.867, 1909.565 354.873 C 1906.724 360.368, 1906.592 365.964, 1909.186 370.941 C 1912.482 377.268, 1915.772 379.327, 1923.354 379.810 C 1928.020 380.107, 1930.584 379.756, 1933.094 378.476 C 1937.066 376.451, 1949.989 366.924, 1951.920 364.596 C 1952.649 363.718, 1954.015 363, 1954.956 363 C 1955.897 363, 1956.998 362.668, 1957.404 362.263 C 1958.673 360.993, 1961.473 361.433, 1962.104 363 C 1962.466 363.901, 1963.399 362.104, 1964.440 358.500 C 1966.987 349.676, 1972.008 345.148, 1982.275 342.415 C 1989.947 340.372, 1989.949 340.373, 1989.578 345.750 C 1989.398 348.363, 1989.446 349.280, 1989.686 347.788 C 1989.925 346.296, 1991.464 343.946, 1993.106 342.564 C 1999.657 337.052, 2007.949 337.065, 2027.044 342.617 C 2045.611 348.016, 2050.589 348.956, 2060.739 348.979 C 2078.634 349.020, 2089.183 342.026, 2095.750 325.768 C 2098.595 318.723, 2102.464 298.103, 2103.540 284.250 C 2104.300 274.463, 2103.697 271.758, 2102.538 279.750 M 114.500 286.887 C 112.850 287.921, 109.475 290.870, 107 293.440 L 102.500 298.115 110 294.317 C 116.510 291.020, 117.514 290.154, 117.606 287.759 C 117.665 286.242, 117.665 285.002, 117.606 285.004 C 117.548 285.006, 116.150 285.853, 114.500 286.887 M 1733.376 287.754 C 1727.349 291.766, 1707.764 312.970, 1686.041 339 C 1679.845 346.425, 1673.363 353.314, 1671.638 354.309 C 1667.685 356.587, 1661.876 356.006, 1657.596 352.905 C 1655.101 351.096, 1654.821 351.033, 1656.153 352.580 C 1657.522 354.170, 1657.715 356.049, 1657.278 363.510 C 1656.753 372.467, 1656.768 372.540, 1659.776 375.760 C 1663.918 380.194, 1669.889 380.312, 1675.737 376.075 C 1679.383 373.434, 1682.634 369.822, 1699.587 349.575 C 1702.385 346.234, 1711.659 336.277, 1720.196 327.449 C 1737.177 309.888, 1739.721 306.093, 1738.442 300.223 C 1737.995 298.176, 1737.601 293.912, 1737.565 290.750 C 1737.529 287.587, 1737.500 285.001, 1737.500 285.004 C 1737.500 285.006, 1735.644 286.244, 1733.376 287.754 M 772 290.478 C 772 291.475, 770.434 295.547, 768.519 299.528 C 764.457 307.973, 757.921 314.900, 750 319.154 C 746.975 320.779, 745.288 321.873, 746.250 321.586 C 749.147 320.720, 748.245 322.519, 743.666 326.740 C 737.732 332.210, 733.438 333.510, 721.500 333.449 C 710.160 333.391, 694.830 330.244, 688.544 326.684 C 683.606 323.887, 679.983 319.247, 681.841 318.098 C 683.755 316.915, 673.013 315.860, 666.750 316.616 C 661.692 317.226, 661.317 317.491, 656.500 323.858 C 644.470 339.756, 629.733 352.648, 620.857 355.039 C 616.225 356.286, 614.160 355.780, 609.745 352.317 L 606.500 349.773 609.550 352.694 C 612.386 355.409, 612.512 355.823, 611.346 358.558 C 609.784 362.218, 609.637 371.109, 611.085 374.288 C 612.464 377.314, 616.976 380.003, 620.654 379.990 C 627.051 379.968, 633.526 375.504, 647.188 361.695 C 659.394 349.358, 660.970 348.106, 666.154 346.620 C 674.584 344.204, 676.642 344.352, 707 349.554 C 713.580 350.682, 720.035 351.042, 728 350.725 C 738.930 350.290, 740.084 350.029, 751.279 345.480 C 761.738 341.229, 763.324 340.836, 765.443 341.969 C 767.155 342.886, 768.076 344.553, 768.703 347.873 C 769.309 351.077, 769.451 347.991, 769.166 337.839 C 768.766 323.626, 770.098 304.544, 772.179 294.681 C 772.738 292.031, 772.926 289.593, 772.598 289.264 C 772.269 288.936, 772 289.482, 772 290.478 M 1497.129 295.590 C 1493.666 305.468, 1481.418 320.147, 1473.014 324.493 C 1471.293 325.383, 1470.282 326.570, 1470.581 327.350 C 1471.265 329.134, 1463.877 335.695, 1458.670 337.927 C 1448.234 342.399, 1442.754 343.450, 1430 343.428 C 1417.159 343.406, 1410.587 342.428, 1398.635 338.757 C 1391.120 336.449, 1384.321 331.211, 1385.353 328.523 C 1385.674 327.685, 1385.807 327, 1385.648 327 C 1385.489 327, 1380.543 325.186, 1374.658 322.968 L 1363.958 318.936 1355.729 325.787 C 1340.338 338.603, 1321.757 350.080, 1310 354.034 C 1300.350 357.280, 1287.578 357.285, 1279 354.046 C 1267.845 349.834, 1259.591 339.624, 1255.520 325 L 1253.989 319.500 1254.569 328.500 C 1255.839 348.186, 1259.520 365.614, 1264.111 373.671 C 1270.069 384.129, 1278.286 389.046, 1290.982 389.750 C 1309.463 390.774, 1318.318 386.959, 1335.500 370.571 C 1348.650 358.029, 1356.630 352.633, 1364.415 351.019 C 1369.848 349.893, 1375.438 350.965, 1393.328 356.566 C 1411.607 362.288, 1436.325 363.726, 1451.333 359.940 C 1464.963 356.501, 1473.673 351.600, 1483.025 342.108 C 1492.783 332.204, 1499.361 314.400, 1498.794 299.430 L 1498.500 291.680 1497.129 295.590 M 63.434 296.483 C 62.815 298.427, 62.503 308.001, 63.059 308.001 C 63.692 308, 73 297.388, 73 296.667 C 73 295.690, 63.744 295.512, 63.434 296.483 M 1681.986 300.269 C 1681.979 302.596, 1681.724 305.625, 1681.420 307 C 1680.978 308.997, 1681.978 308.302, 1686.392 303.541 C 1689.430 300.264, 1691.822 297.515, 1691.708 297.432 C 1691.594 297.349, 1689.362 297.002, 1686.750 296.660 L 1682 296.038 1681.986 300.269 M 1211.196 300.073 C 1211.088 300.937, 1209.044 305.662, 1206.654 310.573 C 1201.692 320.767, 1192.496 332.676, 1185.139 338.436 C 1182.374 340.601, 1180.315 342.700, 1180.562 343.101 C 1180.810 343.501, 1178.064 346.490, 1174.461 349.742 C 1161.611 361.340, 1144.168 367.665, 1127.537 366.757 C 1117.102 366.187, 1105.300 362.632, 1097.500 357.709 C 1091.660 354.023, 1080.837 344.073, 1081.500 342.999 C 1081.751 342.593, 1079.341 340.206, 1076.144 337.694 C 1069.582 332.539, 1060.931 322.361, 1055.693 313.633 L 1052.172 307.766 1050.478 311.043 C 1046.853 318.053, 1051.075 332.435, 1061.032 347 C 1064.653 352.296, 1079.383 367.196, 1083.502 369.729 C 1098.024 378.658, 1107.586 382.338, 1120.858 384.105 C 1141.018 386.789, 1160.270 382.076, 1177.691 370.192 C 1184.650 365.444, 1195.362 354.413, 1199.726 347.500 C 1207.516 335.157, 1212.391 318.102, 1211.746 305.449 C 1211.551 301.627, 1211.304 299.208, 1211.196 300.073 M 125 313.059 C 125 313.641, 124.582 313.859, 124.070 313.543 C 121.473 311.939, 98 329.552, 98 333.106 C 98 335.313, 103.248 333.651, 107.660 330.047 C 116.143 323.117, 127.545 312.070, 126.250 312.034 C 125.563 312.015, 125 312.477, 125 313.059 M 886.577 345.551 C 884.624 353.330, 874.365 371.108, 866.697 380 C 862.383 385.002, 842.202 405.898, 844 403.500 C 845.389 401.648, 845.371 401.601, 843.761 402.863 C 842.805 403.613, 842.223 404.551, 842.468 404.948 C 843.188 406.113, 835.027 413.467, 828 417.987 C 821.761 421.998, 821.231 422.152, 814.799 421.803 C 809.437 421.513, 807.594 420.967, 805.580 419.075 C 804.195 417.774, 803.342 416.255, 803.685 415.700 C 804.040 415.127, 803.810 414.999, 803.155 415.405 C 802.520 415.797, 802 415.696, 802 415.180 C 802 414.665, 800.675 413.694, 799.056 413.023 C 795.507 411.553, 786.493 402.554, 783.303 397.297 C 779.539 391.093, 774.973 379.320, 772.960 370.632 L 771.077 362.500 771.613 371 C 772.694 388.146, 776.805 407.096, 781.843 418.155 C 782.973 420.636, 785.991 425.451, 788.550 428.854 C 804.998 450.735, 826.882 447.277, 855.089 418.338 C 860.364 412.927, 866.846 405.575, 869.495 402 C 879.694 388.234, 889.026 363.517, 888.985 350.376 C 888.966 344.342, 887.578 341.561, 886.577 345.551 M 2638.115 346.073 C 2637.908 348.900, 2629.390 365.332, 2624.156 373 C 2621.340 377.125, 2612.530 387.512, 2604.578 396.082 C 2584.195 418.050, 2576.066 424, 2566.436 424 C 2561.001 424, 2554.219 420.556, 2554.775 418.077 C 2554.926 417.403, 2554.588 417.136, 2554.025 417.485 C 2553.461 417.833, 2553 417.696, 2553 417.180 C 2553 416.665, 2551.681 415.696, 2550.070 415.029 C 2545.308 413.056, 2535.570 402.082, 2531.618 394.234 C 2529.628 390.282, 2526.860 383.325, 2525.466 378.774 L 2522.933 370.500 2523.431 380.122 C 2524.624 403.154, 2531.747 423.442, 2542.464 434.332 C 2549.824 441.810, 2555.470 444.376, 2564.500 444.345 C 2577.436 444.302, 2588.159 438.083, 2605.500 420.566 C 2622.152 403.745, 2632.815 386.337, 2636.944 369.232 C 2639.500 358.642, 2640.056 353.211, 2639.069 348.500 C 2638.607 346.300, 2638.178 345.208, 2638.115 346.073" stroke="none" fill="#542b04" fill-rule="evenodd"/><path d="M 2004 0.588 C 2002.625 0.828, 1998.800 1.491, 1995.500 2.063 C 1978.640 4.984, 1959.790 12.597, 1945.030 22.446 C 1910.933 45.199, 1889.110 80.759, 1887.300 116.514 L 1886.742 127.528 1882.892 127.161 C 1879.625 126.850, 1878.085 127.477, 1872.719 131.307 C 1869.241 133.789, 1865.774 136.568, 1865.014 137.483 C 1860.280 143.187, 1845.027 146.760, 1820.314 147.952 C 1798.924 148.984, 1792.027 150.583, 1783.436 156.500 C 1777.317 160.714, 1773.433 165.910, 1771.431 172.562 C 1768.511 182.266, 1770.061 191.375, 1775.768 198.042 C 1786.065 210.072, 1803.674 209.399, 1810.138 196.729 C 1814.154 188.858, 1812.390 179.798, 1805.845 174.676 L 1802.650 172.175 1807.075 171.619 C 1812.708 170.910, 1840 170.222, 1840 170.788 C 1840 172.335, 1825.497 191.527, 1818.174 199.672 C 1802.303 217.322, 1793.789 224.950, 1785.987 228.506 C 1773.735 234.090, 1769.318 237.653, 1755.613 253 C 1752.420 256.576, 1752.056 265.530, 1754.953 269.213 C 1757.653 272.646, 1763.139 274.496, 1766.816 273.214 C 1770.219 272.028, 1787.762 259.792, 1798.450 251.151 L 1806.401 244.723 1817.450 245.358 C 1829.516 246.052, 1834 246.785, 1834 248.064 C 1834 249.702, 1817.363 265.641, 1810.659 270.424 L 1803.818 275.306 1797.659 273.143 C 1790.524 270.637, 1783.412 270.383, 1778.450 272.457 C 1776.532 273.258, 1774.832 273.820, 1774.671 273.707 C 1773.941 273.192, 1767.841 281.137, 1766.497 284.354 C 1760.819 297.942, 1773.129 308.528, 1790.576 305.060 C 1794.162 304.347, 1797.335 304.002, 1797.626 304.292 C 1797.917 304.583, 1804.204 318.924, 1811.597 336.161 C 1827.649 373.584, 1833.910 386.476, 1841.988 398.739 C 1859.070 424.667, 1879.009 437.358, 1902.494 437.250 C 1926.084 437.141, 1951.705 422.841, 1968.272 400.538 C 1979.270 385.732, 1987.864 363.803, 1989.353 346.750 C 1989.920 340.259, 1990.057 340.343, 1982.275 342.415 C 1971.763 345.213, 1967.213 349.477, 1964.041 359.500 C 1957.440 380.360, 1942.602 398.520, 1924.743 407.598 C 1904.860 417.704, 1888.151 415.278, 1872.886 400.069 C 1861.500 388.724, 1854.913 377.213, 1837.657 338.500 C 1832.999 328.050, 1826.499 313.589, 1823.212 306.363 L 1817.237 293.227 1823.272 288.970 C 1831.067 283.474, 1849.812 265.207, 1857.500 255.618 C 1861.668 250.419, 1864.569 247.766, 1867 246.931 C 1876.346 243.722, 1884.116 237.883, 1888.859 230.506 C 1890.275 228.303, 1891.482 226.275, 1891.542 226 C 1892.975 219.361, 1893.009 215.956, 1891.671 212.754 C 1889.462 207.469, 1886.042 205.583, 1880.230 206.449 C 1877.629 206.836, 1874.487 207.166, 1873.250 207.182 C 1872.013 207.198, 1871 207.742, 1871 208.390 C 1871 209.038, 1869.550 210.425, 1867.778 211.472 C 1866.005 212.519, 1861.485 216.446, 1857.732 220.199 L 1850.908 227.023 1840.210 225.434 C 1834.326 224.560, 1829.331 223.664, 1829.110 223.443 C 1828.889 223.222, 1830.489 221.108, 1832.667 218.746 C 1840.682 210.050, 1852.884 193.975, 1863.939 177.546 C 1873.848 162.820, 1883.769 151, 1886.219 151 C 1886.648 151, 1887.045 148.188, 1887.100 144.750 C 1887.189 139.155, 1888.652 131.244, 1888.900 135.015 C 1889.310 141.245, 1900.049 153.209, 1909.820 158.320 C 1927.582 167.613, 1939.826 169.408, 1980.017 168.611 C 1998.476 168.245, 2014.873 168.417, 2021.517 169.047 C 2044.104 171.185, 2059.049 177.021, 2068.896 187.548 C 2075.474 194.580, 2078.872 200.998, 2082.171 212.618 C 2085.553 224.530, 2085.371 248.020, 2081.737 268.518 C 2077.134 294.491, 2075.046 298.226, 2064.388 299.557 C 2058.263 300.322, 2055.903 299.781, 2038.500 293.618 C 2025.842 289.136, 2014.556 287.180, 1999.157 286.800 C 1992.472 286.635, 1987.002 286.177, 1987.001 285.782 C 1987.001 285.387, 1992.240 275.037, 1998.645 262.782 C 2010.034 240.989, 2010.489 240.302, 2019.395 231.468 C 2029.741 221.204, 2034.686 213.584, 2037.167 204.081 C 2040.392 191.727, 2039.067 185.683, 2032.447 182.542 C 2028.115 180.486, 2023.122 181.103, 2020.482 184.020 C 2019.497 185.109, 2018.085 186, 2017.345 186 C 2016.605 186, 2016 186.719, 2016 187.598 C 2016 188.476, 2013.601 192.639, 2010.669 196.848 C 2007.737 201.056, 2003.154 208.047, 2000.484 212.382 C 1996.290 219.191, 1994.600 220.931, 1988.064 225.170 C 1983.904 227.868, 1971.796 234.377, 1961.159 239.634 C 1943.295 248.462, 1941.703 249.467, 1940.311 252.798 C 1938.348 257.495, 1939.832 262.840, 1944.095 266.426 C 1948.677 270.282, 1953.197 269.858, 1964.676 264.493 C 1969.981 262.015, 1974.525 260.191, 1974.775 260.441 C 1975.258 260.924, 1967.028 276.695, 1961.345 286.179 C 1958.336 291.200, 1957.335 292.059, 1952.720 293.584 C 1930.534 300.915, 1909.953 314.433, 1904.589 325.198 C 1900.333 333.737, 1901.649 340.961, 1908.794 348.293 C 1916.258 355.953, 1926.757 356.534, 1937.191 349.865 C 1943.065 346.111, 1958.727 329.753, 1966 319.776 C 1971.399 312.370, 1971.610 312.208, 1977.500 310.992 C 1985.908 309.255, 2005.046 309.505, 2013.525 311.462 C 2017.361 312.348, 2025.900 314.821, 2032.500 316.957 C 2048.800 322.234, 2058.433 323.625, 2068.401 322.142 C 2082.609 320.029, 2090.014 314.924, 2095.865 303.207 C 2103.858 287.201, 2109.331 240.045, 2106.021 215.716 C 2100.747 176.969, 2079.603 156.336, 2036 147.390 C 2029.114 145.978, 2021.140 145.595, 1994 145.373 C 1951.540 145.025, 1942.376 144.523, 1932.544 142.001 C 1921.325 139.123, 1915.056 135.409, 1912.169 129.926 C 1910.082 125.965, 1909.890 124.555, 1910.339 116.500 C 1912.078 85.310, 1935.770 52.266, 1968.536 35.329 C 2006.675 15.615, 2054.185 20.050, 2093.990 47.042 C 2136.114 75.606, 2159.838 121.029, 2162.647 178.500 C 2163.671 199.432, 2160.352 223.617, 2153.180 247.500 C 2142.264 283.850, 2120.793 321.605, 2092.241 354.661 C 2088.363 359.150, 2084.880 363.802, 2084.501 364.998 C 2081.774 373.589, 2091.905 382.660, 2100.529 379.350 C 2103.026 378.392, 2119.266 359.038, 2128.836 345.614 C 2177.125 277.883, 2196.128 200.771, 2180.368 136.500 C 2176.535 120.869, 2173.233 111.559, 2166.463 97.303 C 2152.001 66.852, 2133.304 45.139, 2105.467 26.467 C 2088.416 15.030, 2069.874 7.161, 2049 2.504 C 2041.788 0.895, 2010.012 -0.458, 2004 0.588 M 1369.500 79.500 C 1327.455 86.180, 1287.746 107.194, 1281.472 126.085 C 1277.567 137.840, 1283.446 147.677, 1297.156 152.332 C 1308.676 156.243, 1322.768 156.597, 1339 153.384 C 1357.482 149.724, 1399.039 137.182, 1415.134 130.406 C 1422.197 127.433, 1428.416 125, 1428.956 125 C 1430.519 125, 1437.971 135.632, 1444.026 146.500 C 1459.065 173.491, 1472.782 213.268, 1477.561 243.740 C 1479.868 258.456, 1479.197 278.236, 1476.120 286.161 C 1472.160 296.363, 1464.410 303.759, 1453.092 308.138 C 1446.023 310.872, 1426.569 311.842, 1415.165 310.028 C 1401.170 307.801, 1382.327 302.657, 1380.131 300.463 C 1379.927 300.260, 1381.563 297.241, 1383.765 293.754 C 1397.293 272.334, 1406.924 242.446, 1410.020 212.271 C 1411.170 201.068, 1410.616 198.416, 1406.440 195.131 C 1402.121 191.734, 1395.837 192.203, 1391.439 196.250 C 1387.939 199.471, 1387.895 199.617, 1386.487 212.500 C 1384.605 229.709, 1384.202 232.181, 1381.841 241 C 1377.140 258.553, 1369.254 275.653, 1360.254 287.806 C 1356.594 292.749, 1355.143 294.005, 1353.542 293.617 C 1352.419 293.345, 1346.842 292.617, 1341.149 292 C 1329.648 290.753, 1320.560 291.656, 1312.045 294.891 C 1304.428 297.785, 1293.207 305.722, 1285.376 313.754 L 1278.253 321.060 1277.180 316.780 C 1275.836 311.415, 1274.328 298.516, 1273.523 285.500 C 1271.567 253.878, 1259.958 172.768, 1253.343 144.500 C 1249.016 126.008, 1240.758 116.551, 1226.663 113.945 C 1210.045 110.874, 1193.906 121.563, 1183.972 142.220 C 1181.253 147.874, 1179.022 153.063, 1179.014 153.750 C 1179.006 154.438, 1178.550 155, 1178 155 C 1177.450 155, 1177 154.303, 1177 153.450 C 1177 150.562, 1173.980 146.041, 1171.033 144.517 C 1167.207 142.539, 1163.655 142.598, 1159.700 144.706 C 1157.940 145.644, 1156.162 146.319, 1155.750 146.206 C 1155.338 146.093, 1155 146.936, 1155 148.081 C 1155 151.449, 1138.727 166.940, 1129.500 172.356 C 1119.799 178.050, 1113.651 180.034, 1095.160 183.436 C 1067.157 188.587, 1056.945 194.918, 1050.940 210.847 C 1044.985 226.644, 1056.790 243.258, 1074 243.303 C 1082.293 243.324, 1090.606 238.339, 1092.457 232.234 C 1093.392 229.153, 1091.480 223.800, 1088.417 220.922 C 1085.760 218.426, 1080.012 217.802, 1075.136 219.479 C 1072.985 220.219, 1072.837 220.077, 1073.493 217.896 C 1075.118 212.490, 1080.919 210.161, 1101.953 206.473 C 1117.007 203.833, 1130.189 199.387, 1139.265 193.887 C 1145 190.413, 1145.315 190.374, 1144.489 193.250 C 1141.219 204.634, 1130.880 226.762, 1123.967 237.169 C 1121.785 240.454, 1120 244.167, 1120 245.421 C 1120 249.347, 1102.280 263.562, 1090.153 269.365 C 1080.673 273.901, 1074.105 274.748, 1065.817 272.501 C 1055.958 269.829, 1054.597 269.724, 1050.744 271.334 C 1045.954 273.335, 1043.904 277.452, 1044.199 284.482 C 1044.326 287.517, 1044.727 290, 1045.090 290 C 1045.453 290, 1046.036 291.462, 1046.385 293.250 C 1046.734 295.038, 1049.250 301, 1051.975 306.500 C 1073.210 349.357, 1119.198 368.446, 1161.710 352.051 C 1181.684 344.349, 1197.245 329.962, 1206.652 310.500 C 1213.042 297.281, 1215.321 285.789, 1214.684 270 C 1213.999 253.024, 1210.919 242.919, 1202.420 229.774 C 1197.775 222.589, 1188.866 215.101, 1182.440 212.980 C 1180.491 212.337, 1179.032 211.500, 1179.198 211.121 C 1179.364 210.741, 1182.726 203.921, 1186.669 195.965 C 1190.612 188.009, 1195.729 176.101, 1198.041 169.502 C 1200.353 162.903, 1203.265 155.197, 1204.512 152.377 C 1209.381 141.367, 1218.851 134.707, 1224.434 138.365 C 1229.667 141.794, 1231.250 147.653, 1238.426 190.168 C 1243.679 221.285, 1248.248 256.833, 1251.001 288 C 1252.094 300.375, 1253.497 313.631, 1254.120 317.458 C 1257.278 336.887, 1265.545 348.926, 1279.317 354.153 C 1287.557 357.281, 1300.497 357.231, 1310 354.034 C 1321.757 350.080, 1340.338 338.603, 1355.729 325.787 L 1363.958 318.936 1374.729 323.103 C 1398.003 332.108, 1417.759 335.749, 1437.500 334.670 C 1456.423 333.636, 1469.840 328.463, 1481.635 317.655 C 1492.402 307.789, 1498.675 296.034, 1501.035 281.299 C 1502.555 271.813, 1502.293 251.728, 1500.491 239.597 C 1495.307 204.684, 1476.427 154.248, 1456.930 123.227 C 1453.642 117.995, 1451.075 113.618, 1451.226 113.500 C 1452.993 112.114, 1473.213 104.834, 1478.697 103.608 C 1502.529 98.283, 1523.462 106.115, 1548 129.539 C 1558.700 139.753, 1560.570 141, 1565.188 141 C 1570.020 141, 1575.666 136.295, 1576.562 131.521 C 1577.564 126.179, 1574.713 121.940, 1563.176 111.619 C 1522.266 75.022, 1492.439 69.612, 1446.149 90.392 L 1433.797 95.937 1427.840 91.891 C 1409.539 79.463, 1392.505 75.845, 1369.500 79.500 M 1375.500 102.418 C 1346.905 107.984, 1326.760 115.432, 1313.134 125.475 C 1305.411 131.167, 1305.893 132.151, 1316.713 132.776 C 1329.121 133.492, 1343.680 129.942, 1394 113.931 C 1408.529 109.309, 1410.215 108.474, 1408 107.005 C 1400.695 102.157, 1386.867 100.206, 1375.500 102.418 M 676.190 105.026 C 670.979 108.203, 669.794 112.222, 671.601 120.589 C 676.411 142.850, 676.486 143.667, 676.452 173 C 676.406 212.229, 674.555 225.676, 664.885 257 C 659.109 275.714, 655.267 285.339, 650.781 292.336 C 648.167 296.415, 646.374 297.811, 639.345 301.248 C 624.140 308.680, 609.707 322.466, 606.806 332.328 C 606.131 334.623, 604.886 337.048, 604.039 337.718 C 603.193 338.388, 602.991 338.951, 603.591 338.968 C 604.191 338.986, 605.232 341.459, 605.905 344.465 C 607.144 350.002, 610.478 354.065, 614.945 355.483 C 622.885 358.003, 641.250 344.024, 656.500 323.852 C 661.411 317.356, 661.600 317.227, 667.138 316.582 C 673.555 315.835, 679.829 316.705, 699 321.001 C 716.525 324.927, 729.365 325.808, 737.725 323.656 C 754.515 319.335, 765.051 309.920, 771.092 293.838 C 772.195 290.902, 772.861 289.850, 772.571 291.500 C 766.745 324.694, 768.567 362.073, 777.080 384 C 781.035 394.186, 784.576 400.028, 790.466 406.081 C 808.173 424.281, 828.925 419.379, 857.045 390.353 C 871.785 375.138, 879.028 364.483, 885.437 348.586 C 890.040 337.168, 892 327.262, 892 315.410 L 892 305.736 888.429 302.368 C 885.607 299.707, 884.023 299, 880.879 299 C 876.010 299, 871.809 301.050, 870.292 304.165 C 869.667 305.449, 868.889 311.536, 868.563 317.690 C 867.652 334.932, 863.036 347.308, 852.326 361.227 C 843.491 372.708, 827.896 386.934, 819.300 391.354 C 817.539 392.259, 814.540 393, 812.634 393 C 809.820 393, 808.613 392.294, 806.217 389.250 C 800.413 381.874, 796.039 370.433, 793.494 355.972 C 791.524 344.782, 791.559 319.252, 793.563 304.784 C 798.562 268.695, 812.951 231.007, 827.622 215.578 C 829.924 213.156, 830.409 211.745, 830.450 207.349 C 830.494 202.683, 830.115 201.657, 827.309 198.849 C 824.863 196.402, 822.914 195.502, 818.963 194.995 C 814.574 194.432, 813.637 194.612, 812.654 196.204 C 810.816 199.182, 799.866 205.936, 784.615 213.500 C 771.501 220.004, 770.416 220.756, 769.321 224.112 C 768.453 226.772, 768.426 228.840, 769.219 231.966 C 771.020 239.062, 776.469 241.194, 785.747 238.436 C 787.985 237.771, 787.988 237.785, 786.406 241.571 C 785.532 243.663, 783.304 250.353, 781.455 256.437 C 779.606 262.522, 777.406 269.750, 776.566 272.500 L 775.039 277.500 775.529 273.264 C 775.882 270.210, 775.459 267.983, 774.010 265.279 C 771.757 261.076, 771.472 257.122, 773.095 252.571 C 774.862 247.615, 771.022 238.845, 764.087 231.998 C 754.287 222.322, 742.162 217.948, 724.920 217.869 C 715.810 217.827, 713.128 218.226, 705.611 220.740 L 696.882 223.660 697.422 220.080 C 702.352 187.400, 701.497 145.405, 695.322 117 C 694.040 111.102, 692.999 108.806, 690.446 106.250 C 686.539 102.338, 681.331 101.891, 676.190 105.026 M 2423.452 108.250 C 2418.969 112.391, 2418.889 114.603, 2422.612 131.500 C 2425.417 144.226, 2425.477 145.132, 2425.455 174.500 C 2425.426 214.527, 2423.733 226.884, 2413.903 258.816 C 2408.508 276.343, 2404.504 286.335, 2399.696 294.268 C 2397.212 298.367, 2395.652 299.587, 2388.572 302.966 C 2372.884 310.453, 2358.505 324.343, 2355.740 334.681 C 2355.105 337.056, 2354.198 339, 2353.725 339 C 2353.252 339, 2353.150 339.896, 2353.497 340.991 C 2353.845 342.087, 2354.345 344.172, 2354.609 345.626 C 2356.627 356.757, 2364.550 359.780, 2376.239 353.879 C 2383.330 350.300, 2397.594 336.581, 2405.448 325.786 C 2409.915 319.647, 2410.713 319.016, 2414.780 318.406 C 2420.860 317.494, 2428.232 318.390, 2444.062 321.965 C 2463.982 326.463, 2474.351 327.563, 2483.202 326.116 C 2503.705 322.767, 2517.269 309.409, 2522.416 287.500 C 2525.017 276.429, 2524.419 254.428, 2521.276 245.595 C 2518.618 238.122, 2510.361 229.716, 2501.619 225.584 C 2491.766 220.926, 2485.217 219.562, 2473 219.622 C 2464.293 219.664, 2461.154 220.134, 2454.620 222.373 C 2450.286 223.858, 2446.617 224.944, 2446.467 224.787 C 2446.317 224.629, 2446.880 218.875, 2447.718 212 C 2451.449 181.379, 2448.592 127.517, 2442.417 112.085 C 2440.605 107.556, 2436.516 105, 2431.081 105 C 2427.832 105, 2426.233 105.681, 2423.452 108.250 M 215.500 120.400 C 197.357 123.902, 177.456 132.514, 161.728 143.669 C 151.289 151.073, 129.524 172.649, 120.035 185 C 104.903 204.695, 94 222.184, 94 226.761 C 94 232.955, 101.764 238.830, 108.323 237.599 C 112.616 236.794, 113.986 235.231, 124.193 219.500 C 144.638 187.989, 167.277 165.513, 190.297 153.873 C 206.644 145.607, 225.197 141.211, 238.632 142.420 C 267.630 145.030, 291.018 162.513, 299.609 188 C 301.026 192.204, 301.460 196.446, 301.450 206 C 301.439 216.795, 301.066 219.681, 298.715 227.154 C 291.856 248.970, 276.006 272.541, 258.632 286.765 C 249.925 293.894, 245.602 296.447, 238.836 298.456 C 229.053 301.361, 225.674 300.635, 200.773 290.273 L 187.046 284.561 189.358 282.030 C 203.411 266.647, 238.238 225.619, 241.602 220.485 C 242.490 219.130, 246.043 216.004, 249.499 213.538 C 260.201 205.902, 266.906 197.044, 268.454 188.500 C 268.853 186.300, 269.633 183.950, 270.189 183.278 C 270.892 182.427, 270.713 181.570, 269.599 180.456 C 268.720 179.577, 268 178.051, 268 177.065 C 268 174.444, 263.263 170.140, 259.628 169.458 C 253.118 168.237, 250.286 170.565, 237 188.063 C 230.158 197.075, 227.652 199.624, 224.154 201.135 C 214.767 205.188, 201.938 209.292, 190.061 212.043 C 174.827 215.570, 172.500 217.301, 172.500 225.100 C 172.500 229.659, 172.866 230.489, 176.235 233.577 C 180.467 237.455, 181.893 237.626, 192.084 235.482 C 196.052 234.648, 199.490 234.157, 199.724 234.391 C 200.328 234.995, 180.501 257.507, 168.311 270.059 L 158.056 280.618 147.278 282.250 C 134.426 284.195, 123.710 287.606, 111.500 293.638 L 102.500 298.084 107.500 292.961 C 110.250 290.144, 114.169 286.975, 116.209 285.920 C 120.721 283.586, 124.661 279.487, 125.462 276.294 C 126.375 272.658, 124.247 266.340, 121.341 264.054 C 118.600 261.898, 113.553 261.296, 112.500 263 C 112.160 263.550, 110.488 264, 108.785 264 C 107.056 264, 104.297 265.061, 102.537 266.404 C 97.409 270.315, 89.635 272.152, 75.750 272.732 L 63 273.265 63 268.565 C 63 264.548, 63.254 263.944, 64.750 264.410 C 65.713 264.710, 69.690 265.404, 73.590 265.951 C 80.699 266.950, 86.487 266.441, 96.289 263.957 C 100.873 262.795, 101.006 262.664, 99.393 260.882 C 98.466 259.858, 97.511 256.878, 97.271 254.260 C 96.908 250.318, 97.377 248.488, 100.001 243.611 C 102.586 238.804, 102.832 237.867, 101.334 238.516 C 100.326 238.954, 96.350 240.172, 92.500 241.224 C 82.859 243.858, 73.095 243.260, 65.561 239.574 C 59.492 236.604, 58.301 234.958, 55.386 225.500 C 53.447 219.211, 52.369 217.622, 48.098 214.757 C 42.538 211.026, 33.210 213.554, 31.424 219.276 C 31.043 220.499, 30.386 221.725, 29.965 222 C 29.012 222.622, 32.138 235.438, 34.232 239.500 C 36.686 244.257, 37.963 249.668, 39.535 261.962 C 42.012 281.337, 41.350 296.585, 36.803 324.886 L 34.652 338.273 31.076 340.386 L 27.500 342.500 31.086 342.801 C 34.295 343.070, 34.768 343.487, 35.586 346.767 C 37.197 353.226, 45.291 356.741, 52.364 354.052 C 53.736 353.530, 59.502 347.523, 65.179 340.703 L 75.500 328.302 76.055 335.030 C 76.881 345.030, 81.731 351.633, 90.722 354.997 C 97.240 357.436, 102.080 357.528, 108.572 355.336 C 117.950 352.169, 121.391 349.408, 149.663 322.370 C 162.286 310.298, 168.519 305, 170.099 305 C 174.964 305, 186.003 308.476, 197 313.472 C 216.578 322.366, 224.788 324.342, 236.212 322.907 C 271.258 318.507, 314.002 269.731, 322.014 225 C 323.762 215.237, 323.781 215.213, 326.516 219.238 C 331.997 227.304, 345.644 230.532, 354.282 225.807 C 359.076 223.185, 364 214.911, 364 209.478 C 364 204.883, 360.007 198.009, 356.131 195.931 L 352.812 194.151 357.156 193.622 C 364.044 192.783, 391 191.998, 391 192.636 C 391 194.414, 376.691 213.289, 368.618 222.160 C 353.113 239.199, 344.039 247.493, 338.816 249.403 C 331.979 251.902, 322.726 258.192, 316.207 264.773 C 305.635 275.444, 304.904 276.528, 304.293 282.449 C 303.748 287.734, 303.857 288.057, 307.389 291.589 C 310.787 294.987, 311.389 295.216, 315.775 294.774 C 320.974 294.250, 328.383 289.513, 347.300 274.619 L 357.309 266.738 368.905 267.299 C 375.282 267.608, 381.800 268.248, 383.388 268.722 L 386.277 269.584 378.388 277.544 C 370.832 285.168, 360.859 293.448, 356.393 295.805 C 354.740 296.678, 353.178 296.496, 349.133 294.958 C 342.592 292.473, 333.830 292.440, 328.459 294.880 C 322.112 297.763, 316 306.236, 316 312.152 C 316 313.371, 316.927 316.284, 318.060 318.624 C 321.555 325.844, 331.645 329.176, 342.294 326.628 L 348.089 325.242 350.606 330.210 C 351.991 332.943, 358.730 348.216, 365.582 364.151 C 372.434 380.086, 379.837 396.697, 382.033 401.065 C 397.470 431.768, 414.841 449.483, 436.381 456.490 C 444.248 459.049, 445.878 459.241, 455.736 458.766 C 464.782 458.330, 467.955 457.699, 475.616 454.813 C 480.630 452.924, 488.121 449.440, 492.261 447.071 C 515.471 433.792, 533.815 406.294, 539.616 376.088 C 542.209 362.582, 541.345 341.280, 537.856 332.703 C 535.557 327.051, 527.717 325.372, 521.898 329.285 C 517.665 332.130, 516.085 336.606, 517.112 342.836 C 517.535 345.401, 517.904 352.225, 517.933 358 C 518.030 377.377, 512.135 393.908, 499.493 409.709 C 486.244 426.268, 469.909 435.098, 452.400 435.167 C 445.638 435.193, 443.965 434.793, 437.501 431.598 C 421.555 423.717, 409.831 407.525, 393.986 371.500 C 390.599 363.800, 386.468 354.575, 384.805 351 C 378.982 338.480, 369 315.811, 369 315.106 C 369 314.714, 371.697 312.492, 374.993 310.167 C 383.082 304.463, 398.528 289.564, 407.754 278.568 C 413.997 271.127, 416.140 269.269, 420.077 267.883 C 432.675 263.446, 441.654 253.273, 443.575 241.257 C 444.206 237.313, 444.388 237.128, 447.114 237.673 C 452.792 238.808, 455.748 236.407, 463.644 224.245 C 480.022 199.020, 498.604 177.708, 514.976 165.372 C 526.271 156.861, 542.912 148.660, 555.500 145.400 C 579.648 139.149, 603.260 143.689, 621.127 158.021 C 643.523 175.985, 650.150 201.282, 640.245 231 C 631.752 256.481, 608.400 285.586, 587.969 296.154 C 582.205 299.135, 580.628 299.499, 573.500 299.490 C 566.652 299.481, 564.204 298.959, 556.500 295.867 C 544.137 290.905, 531 285.333, 530.512 284.845 C 530.290 284.623, 535.291 278.604, 541.625 271.470 C 547.960 264.337, 560.198 249.951, 568.821 239.501 C 585.113 219.760, 587.892 216.816, 596.911 209.743 C 603.630 204.473, 608.521 197.481, 610.627 190.131 C 611.515 187.034, 612.728 183.894, 613.323 183.153 C 614.132 182.146, 613.976 181.566, 612.703 180.854 C 611.766 180.329, 611 178.988, 611 177.873 C 611 174.924, 605.860 170.252, 601.772 169.485 C 596.847 168.561, 593.071 170.784, 587.767 177.731 C 585.344 180.904, 580.549 187.163, 577.110 191.640 L 570.859 199.781 560.679 203.797 C 550.430 207.840, 541.825 210.376, 528 213.426 C 523.875 214.336, 519.786 215.625, 518.913 216.290 C 512.553 221.140, 514.390 232.848, 522.007 236.003 C 524.777 237.150, 526.498 237.105, 533.814 235.695 C 538.524 234.787, 542.511 234.178, 542.675 234.342 C 543.116 234.782, 521.687 258.940, 510.347 270.787 L 500.500 281.073 491.500 282.142 C 468.002 284.934, 446.466 294.745, 431.308 309.564 C 420.933 319.708, 417.561 326.251, 418.194 335.011 C 418.827 343.752, 422.781 349.546, 431.035 353.830 C 436.814 356.829, 438.193 357.146, 444.032 356.822 C 456.112 356.151, 460.705 352.881, 493.275 321.763 L 511.050 304.780 515.775 305.443 C 522.540 306.391, 529.028 308.600, 541 314.030 C 557.266 321.407, 563.342 323.175, 572.500 323.192 C 586.017 323.218, 597.167 318.954, 611.540 308.262 C 630.496 294.159, 648.677 270.310, 658.412 246.775 C 664.903 231.081, 666.408 223.361, 666.457 205.500 C 666.495 191.514, 666.202 188.493, 664.133 181.500 C 660.061 167.733, 654.816 158.885, 644.061 147.638 C 632.175 135.208, 617.434 126.573, 600 121.827 C 592.714 119.844, 589.286 119.527, 576 119.612 C 562.774 119.696, 559.093 120.084, 550.915 122.256 C 519.194 130.679, 494.309 147.617, 468.280 178.500 C 456.809 192.110, 437 221.750, 437 225.303 C 437 227.677, 436.689 227.960, 434.642 227.446 C 433.345 227.121, 430.583 227.565, 428.503 228.434 C 425.657 229.623, 424.385 229.735, 423.361 228.885 C 422.296 228.001, 421.994 228.162, 421.974 229.628 C 421.959 230.740, 419.910 232.883, 416.924 234.909 C 414.161 236.783, 409.941 240.496, 407.547 243.159 C 403.807 247.319, 402.665 248, 399.429 248 C 395.819 248, 383.962 246.328, 381.152 245.422 C 380.262 245.135, 381.815 242.702, 385.736 238.244 C 395.580 227.049, 403.146 217.065, 414.813 199.869 C 420.921 190.866, 426.724 182.518, 427.709 181.318 C 429.500 179.136, 439.975 171.155, 443.585 169.221 C 445.884 167.990, 446.769 159.229, 445.012 155.101 C 443.416 151.352, 439.211 148.641, 434.648 148.420 C 430.401 148.214, 424.915 151.423, 416.349 159.126 C 409.189 165.564, 396.537 168.538, 372 169.551 C 354.772 170.262, 346.365 171.768, 339.117 175.441 C 333.650 178.211, 325.496 185.876, 324.407 189.267 C 323.843 191.026, 323.420 190.179, 322.414 185.277 C 320.055 173.781, 312.220 159.044, 302.894 148.561 C 292.818 137.236, 274.160 126.075, 258.284 121.877 C 248.235 119.220, 225.656 118.440, 215.500 120.400 M 2310.500 120.041 C 2283.395 124.251, 2257.847 137.698, 2234.621 159.981 C 2213.607 180.141, 2186.800 217.483, 2186.800 226.594 C 2186.800 231.029, 2189.206 234.654, 2193.514 236.708 C 2196.400 238.084, 2197.561 238.149, 2200.986 237.122 C 2204.703 236.009, 2205.820 234.727, 2214.422 221.704 C 2249.310 168.887, 2286.003 142.824, 2325.500 142.806 C 2342.892 142.799, 2357.254 147.695, 2370.127 158.021 C 2392.653 176.089, 2399.208 201.110, 2389.245 231 C 2380.719 256.580, 2357.041 286.037, 2336.718 296.346 C 2331.272 299.108, 2329.506 299.499, 2322.500 299.490 C 2315.652 299.481, 2313.204 298.959, 2305.500 295.867 C 2289.822 289.574, 2280.516 285.513, 2280 284.738 C 2279.725 284.325, 2283.805 279.153, 2289.067 273.244 C 2300.888 259.969, 2324.865 231.669, 2331.456 223.210 C 2334.152 219.751, 2339.174 214.910, 2342.617 212.454 C 2351.532 206.092, 2359.987 194.829, 2360.006 189.290 C 2360.010 188.305, 2360.678 186.224, 2361.492 184.664 C 2362.798 182.159, 2362.797 181.654, 2361.485 180.342 C 2360.668 179.526, 2360 178.180, 2360 177.352 C 2360 174.852, 2354.532 170.190, 2350.772 169.485 C 2345.845 168.561, 2342.067 170.787, 2336.779 177.731 C 2334.363 180.904, 2329.591 187.154, 2326.175 191.620 L 2319.964 199.739 2309.732 203.776 C 2299.434 207.839, 2290.839 210.373, 2277 213.426 C 2272.875 214.336, 2268.786 215.625, 2267.913 216.290 C 2261.553 221.140, 2263.390 232.848, 2271.007 236.003 C 2273.777 237.150, 2275.498 237.105, 2282.814 235.695 C 2287.524 234.787, 2291.511 234.178, 2291.675 234.342 C 2292.128 234.795, 2270.519 259.175, 2259.373 270.785 L 2249.500 281.069 2240.500 282.140 C 2217.303 284.901, 2195.492 294.743, 2180.817 309.070 C 2170.689 318.958, 2166.445 327.332, 2167.310 335.719 C 2168.182 344.163, 2172.070 349.696, 2180.035 353.830 C 2185.811 356.827, 2187.195 357.146, 2193.019 356.823 C 2205.205 356.146, 2209.776 352.908, 2241.777 322.276 L 2260.054 304.781 2264.777 305.443 C 2271.540 306.391, 2278.029 308.601, 2290 314.030 C 2306.133 321.347, 2312.297 323.126, 2321.650 323.166 C 2335.185 323.223, 2346.001 319.077, 2360.540 308.262 C 2377.194 295.872, 2394.652 274.103, 2404.502 253.442 C 2419.828 221.296, 2419.958 187.593, 2404.855 162.332 C 2400.428 154.928, 2388.212 141.966, 2380.422 136.407 C 2372.369 130.661, 2359.604 124.714, 2349.500 122.001 C 2340.323 119.538, 2320.242 118.528, 2310.500 120.041 M 2561.258 199.975 C 2555.863 204.739, 2542.490 212.557, 2532.608 216.724 C 2523.125 220.723, 2521.477 222.025, 2519.918 226.749 C 2518.251 231.798, 2520.133 237.500, 2524.304 240.044 C 2528.079 242.345, 2530.879 242.495, 2535.331 240.635 L 2538.597 239.270 2534.349 251.885 C 2525.069 279.440, 2521.071 300.642, 2520.281 326.500 C 2519.126 364.256, 2526.116 391.828, 2540.729 407.159 C 2548.788 415.615, 2554.566 418.464, 2563.500 418.388 C 2576.860 418.275, 2589.080 411.163, 2607 393.072 C 2630.492 369.355, 2641.590 346.752, 2642.738 320.284 L 2643.267 308.067 2639.734 304.534 C 2636.632 301.432, 2635.589 301, 2631.206 301 C 2627.138 301, 2625.666 301.510, 2623.267 303.750 C 2620.440 306.392, 2620.296 306.955, 2619.635 318.006 C 2618.197 342.064, 2611.719 355.316, 2591.520 375.524 C 2573.874 393.177, 2564.972 397.927, 2558.739 393.014 C 2554.921 390.004, 2548.490 376.244, 2546.004 365.762 C 2543.178 353.849, 2541.888 334.106, 2543.011 319.960 C 2545.977 282.618, 2558.392 243.874, 2574.050 223.095 C 2581.871 212.715, 2582.863 209.415, 2579.965 203.428 C 2577.443 198.218, 2575.667 197.060, 2569.659 196.708 C 2565.850 196.485, 2564.707 196.930, 2561.258 199.975 M 1423.289 215.250 C 1417.703 219.199, 1416.761 223.931, 1419.611 233.733 C 1422.252 242.818, 1419.945 252.468, 1413.212 260.500 C 1407.369 267.469, 1407.205 274.032, 1412.744 279.171 C 1420.395 286.270, 1429.001 281.738, 1437.766 265.994 C 1442.707 257.119, 1444.347 249.528, 1443.760 238.244 C 1442.918 222.032, 1438.059 213, 1430.180 213 C 1427.944 213, 1425.208 213.893, 1423.289 215.250 M 1657.327 213.721 C 1654.814 214.181, 1650 218.670, 1650 220.553 C 1650 221.257, 1649.438 222.022, 1648.750 222.254 C 1647.750 222.590, 1647.750 223.371, 1648.750 226.158 C 1649.438 228.074, 1650.004 230.510, 1650.010 231.571 C 1650.015 232.632, 1651.141 235.909, 1652.512 238.854 C 1656.031 246.413, 1657.762 254.763, 1659.072 270.503 C 1660.358 285.944, 1659.467 300.729, 1655.797 324.828 L 1653.616 339.156 1649.558 341.328 L 1645.500 343.500 1649.649 343.803 C 1653.493 344.083, 1653.844 344.354, 1654.436 347.509 C 1655.943 355.546, 1667.876 358.657, 1674.171 352.655 C 1675.452 351.434, 1683.326 342.349, 1691.670 332.467 C 1712.475 307.825, 1728.214 291.111, 1734.185 287.317 C 1741.229 282.841, 1742.858 281.172, 1743.914 277.350 C 1746.134 269.308, 1740.462 262, 1732 262 C 1727.955 262, 1726.355 262.609, 1722.330 265.682 C 1715.109 271.193, 1707.674 273.210, 1694 273.368 L 1682.500 273.500 1682.186 269.117 C 1681.887 264.938, 1681.980 264.767, 1684.186 265.464 C 1685.459 265.866, 1690.631 266.428, 1695.679 266.713 C 1710.699 267.563, 1723.796 263.658, 1737.725 254.178 C 1747.505 247.522, 1759.339 233.557, 1760.617 227.163 C 1761.885 220.827, 1755.678 213.906, 1748.546 213.704 C 1744.072 213.577, 1740.701 216.006, 1736.679 222.255 C 1729.917 232.763, 1720.854 239.270, 1708.540 242.457 C 1700.992 244.411, 1696.719 244.403, 1690.048 242.422 C 1679.945 239.421, 1675.431 234.407, 1673.317 223.837 C 1672.967 222.083, 1671.964 219.792, 1671.090 218.746 C 1668.152 215.229, 1661.786 212.905, 1657.327 213.721 M 1162.250 235.826 C 1161.287 236.830, 1157.153 241.592, 1153.061 246.407 C 1144.879 256.036, 1130.195 270.292, 1121.734 276.820 C 1107.869 287.516, 1090.553 295.462, 1078.353 296.726 L 1073.205 297.259 1074.461 300.245 C 1076.727 305.634, 1084.388 315.231, 1090.500 320.336 C 1111.450 337.836, 1141.914 339.333, 1165.376 324.017 C 1177.489 316.110, 1186.833 303.153, 1190.429 289.276 C 1192.424 281.574, 1192.448 267.176, 1190.478 259.460 C 1188.234 250.671, 1183.517 241.700, 1178.987 237.608 C 1175.421 234.386, 1174.406 234, 1169.497 234 C 1165.480 234, 1163.529 234.492, 1162.250 235.826 M 716.500 241.600 C 704.287 244.614, 696.230 249.779, 690.893 258.016 C 689.075 260.821, 685.507 269.277, 682.963 276.808 C 680.419 284.339, 677.996 291.269, 677.578 292.208 C 677.001 293.506, 677.381 294.021, 679.159 294.352 C 680.447 294.592, 687.125 295.798, 694 297.033 C 700.875 298.267, 709.875 299.920, 714 300.706 C 733.032 304.331, 745.762 298.758, 750.456 284.746 C 752.685 278.094, 753.612 261.917, 752.088 256.295 C 749.527 246.855, 741.229 241.933, 727 241.415 C 722.325 241.245, 717.600 241.328, 716.500 241.600 M 2461.500 244.350 C 2447 248.094, 2438.704 257.261, 2433.030 275.812 C 2431.295 281.483, 2428.993 288.184, 2427.913 290.703 C 2426.833 293.222, 2426.082 295.416, 2426.244 295.577 C 2426.406 295.739, 2431.030 296.580, 2436.519 297.445 C 2442.009 298.310, 2450.550 299.978, 2455.500 301.151 C 2465.774 303.586, 2478.334 303.984, 2485 302.086 C 2491.037 300.367, 2496.999 294.100, 2499.386 286.963 C 2501.732 279.951, 2502.632 263.991, 2501.018 258.036 C 2499.517 252.501, 2493.897 246.660, 2488.477 245.004 C 2482.603 243.209, 2467.352 242.839, 2461.500 244.350 M 63.434 296.483 C 62.815 298.427, 62.503 308.001, 63.059 308.001 C 63.692 308, 73 297.388, 73 296.667 C 73 295.690, 63.744 295.512, 63.434 296.483 M 1681.986 300.269 C 1681.979 302.596, 1681.724 305.625, 1681.420 307 C 1680.978 308.997, 1681.978 308.302, 1686.392 303.541 C 1689.430 300.264, 1691.822 297.515, 1691.708 297.432 C 1691.594 297.349, 1689.362 297.002, 1686.750 296.660 L 1682 296.038 1681.986 300.269 M 120.492 314.618 C 111.753 319.200, 98 330.460, 98 333.033 C 98 335.305, 103.185 333.702, 107.660 330.047 C 115.442 323.690, 127.589 312.072, 126.492 312.034 C 125.938 312.015, 123.238 313.178, 120.492 314.618 M 462.285 315.395 C 452.112 320.879, 439.554 331.887, 441.384 333.717 C 442.630 334.963, 447.337 332.629, 452.708 328.101 C 458.458 323.254, 469.859 311.979, 468.966 312.023 C 468.710 312.035, 465.703 313.553, 462.285 315.395 M 2211.264 315.436 C 2201.172 320.828, 2188.548 331.881, 2190.384 333.717 C 2191.423 334.757, 2195.750 332.981, 2199.584 329.940 C 2204.387 326.133, 2218.179 312.846, 2217.762 312.428 C 2217.595 312.262, 2214.671 313.615, 2211.264 315.436 M 1324.718 316.092 C 1322.637 316.581, 1319.595 317.675, 1317.957 318.522 C 1313.663 320.743, 1300.460 332.320, 1301.737 332.746 C 1303.594 333.365, 1315.655 327.360, 1324.506 321.409 C 1329.178 318.269, 1333 315.542, 1333 315.349 C 1333 314.765, 1328.722 315.149, 1324.718 316.092" stroke="none" fill="#633304" fill-rule="evenodd"/></svg>